<?xml version="1.0" encoding="UTF-8" standalone="no"?>
<svg
   xmlns:dc="http://purl.org/dc/elements/1.1/"
   xmlns:cc="http://creativecommons.org/ns#"
   xmlns:rdf="http://www.w3.org/1999/02/22-rdf-syntax-ns#"
   xmlns:svg="http://www.w3.org/2000/svg"
   xmlns="http://www.w3.org/2000/svg"
   xmlns:sodipodi="http://sodipodi.sourceforge.net/DTD/sodipodi-0.dtd"
   xmlns:inkscape="http://www.inkscape.org/namespaces/inkscape"
   width="32"
   height="32"
   viewBox="0 0 32 32"
   fill="none"
   version="1.1"
   id="svg4"
   sodipodi:docname="Back Button.svg"
   inkscape:version="0.92.5 (2060ec1f9f, 2020-04-08)">
  <metadata
     id="metadata10">
    <rdf:RDF>
      <cc:Work
         rdf:about="">
        <dc:format>image/svg+xml</dc:format>
        <dc:type
           rdf:resource="http://purl.org/dc/dcmitype/StillImage" />
      </cc:Work>
    </rdf:RDF>
  </metadata>
  <defs
     id="defs8" />
  <sodipodi:namedview
     pagecolor="#ffffff"
     bordercolor="#666666"
     borderopacity="1"
     objecttolerance="10"
     gridtolerance="10"
     guidetolerance="10"
     inkscape:pageopacity="0"
     inkscape:pageshadow="2"
     inkscape:window-width="1366"
     inkscape:window-height="720"
     id="namedview6"
     showgrid="false"
     inkscape:zoom="7.375"
     inkscape:cx="-33.084746"
     inkscape:cy="16"
     inkscape:window-x="0"
     inkscape:window-y="22"
     inkscape:window-maximized="1"
     inkscape:current-layer="svg4" />
  <path
     d="M7.99226 17.5745C6.97019 16.7738 6.9702 15.2266 7.99226 14.4258L21.5407 3.81103C22.8534 2.7826 24.7742 3.71782 24.7742 5.38539L24.7742 26.6149C24.7742 28.2825 22.8534 29.2177 21.5407 28.1893L7.99226 17.5745Z"
     stroke="#EEEEEE"
     stroke-width="3"
     id="path2" />
  <path
     style="fill:#ffcc00;stroke-width:0.13559322"
     d="m 21.342373,29.771839 c -0.372881,-0.179965 -3.850848,-2.820101 -7.728814,-5.866968 -6.4964852,-5.104207 -7.0823189,-5.59809 -7.4511323,-6.281638 -0.5660551,-1.04911 -0.5660551,-2.197356 0,-3.246466 0.3688134,-0.683547 0.9546471,-1.177431 7.4511323,-6.2816372 3.877966,-3.0468686 7.355933,-5.6870043 7.728814,-5.8669683 1.65038,-0.7965239 3.660553,-0.079648 4.588153,1.6362453 l 0.293203,0.5423729 V 16 27.59322 l -0.293203,0.542373 c -0.9276,1.715893 -2.937773,2.432769 -4.588153,1.636246 z m 1.825738,-2.915467 c 0.194528,-0.36348 0.194528,-21.3492645 0,-21.7127437 C 23.090911,4.9993784 22.923115,4.8850494 22.79523,4.8895637 22.53933,4.8985969 9.1190165,15.388972 8.8813542,15.765746 c -0.1066228,0.169032 -0.1066228,0.299476 0,0.468508 0.2376623,0.376774 13.6579758,10.867149 13.9138758,10.876183 0.127885,0.0045 0.295681,-0.109816 0.372881,-0.254065 z"
     id="path817"
     inkscape:connector-curvature="0" />
  <path
     style="fill:#000000;stroke-width:0.13559322"
     d="M 22.700847,1.8743114 C 21.105573,1.9668504 19.965096,3.295758 18.693962,4.1049788 14.766743,7.1602347 10.76082,10.128342 7.0069914,13.396557 c -1.4094062,1.04076 -1.7252384,3.222067 -0.6075211,4.580509 2.3648611,2.362139 5.1442217,4.266135 7.7284157,6.376798 2.473191,1.867971 4.843658,3.901923 7.462528,5.560701 1.349555,0.43707 2.928814,0.08115 3.832892,-1.051642 0.532752,-0.563408 1.003941,-1.205891 0.805613,-2.02913 C 26.217425,19.291844 26.251879,11.74298 26.211706,4.2053496 25.503524,2.9171318 24.258393,1.7987378 22.700847,1.8743114 Z m 0.287872,3.1570445 c 0.278561,0.8711217 0.12793,1.9250628 0.213453,2.8572564 0.08274,6.2554987 0.163519,12.5206907 -0.130297,18.7695977 0.01506,0.69558 -0.727917,0.173881 -0.962899,-0.07116 C 17.791002,23.220382 13.381966,19.952102 9.2180476,16.397117 8.9646517,16.210914 8.7388838,15.89291 9.1539725,15.705615 13.14452,12.219443 17.408386,9.025662 21.629765,5.8138521 22.064896,5.5420881 22.472697,5.1290715 22.988719,5.0313559 Z"
     id="path8"
     inkscape:connector-curvature="0" />
</svg>
