<?xml version="1.0" encoding="UTF-8" standalone="no"?>
<svg
   xmlns:dc="http://purl.org/dc/elements/1.1/"
   xmlns:cc="http://creativecommons.org/ns#"
   xmlns:rdf="http://www.w3.org/1999/02/22-rdf-syntax-ns#"
   xmlns:svg="http://www.w3.org/2000/svg"
   xmlns="http://www.w3.org/2000/svg"
   xmlns:sodipodi="http://sodipodi.sourceforge.net/DTD/sodipodi-0.dtd"
   xmlns:inkscape="http://www.inkscape.org/namespaces/inkscape"
   width="20"
   height="28"
   viewBox="0 0 20 28"
   fill="none"
   version="1.1"
   id="svg4"
   sodipodi:docname="Bookmark Filled.svg"
   inkscape:version="0.92.5 (2060ec1f9f, 2020-04-08)">
  <metadata
     id="metadata10">
    <rdf:RDF>
      <cc:Work
         rdf:about="">
        <dc:format>image/svg+xml</dc:format>
        <dc:type
           rdf:resource="http://purl.org/dc/dcmitype/StillImage" />
      </cc:Work>
    </rdf:RDF>
  </metadata>
  <defs
     id="defs8" />
  <sodipodi:namedview
     pagecolor="#ffffff"
     bordercolor="#666666"
     borderopacity="1"
     objecttolerance="10"
     gridtolerance="10"
     guidetolerance="10"
     inkscape:pageopacity="0"
     inkscape:pageshadow="2"
     inkscape:window-width="1366"
     inkscape:window-height="720"
     id="namedview6"
     showgrid="false"
     inkscape:zoom="8.4285714"
     inkscape:cx="-17.178908"
     inkscape:cy="14"
     inkscape:window-x="0"
     inkscape:window-y="22"
     inkscape:window-maximized="1"
     inkscape:current-layer="svg4" />
  <path
     d="M11.13 23.309C10.535 22.861 9.466 22.861 8.87 23.309L3.33 27.455C1.702 28.676 0 27.741 0 25.705V3.245C0 1.472 1.388 0 3.118 0H16.882C18.612 0 20 1.471 20 3.246V25.705C20 27.741 18.3 28.676 16.67 27.455L11.13 23.309V23.309Z"
     fill="#EEEEEE"
     id="path2" />
  <path
     style="fill:#ffcc00;stroke-width:0.11864407"
     d="M 1.1728814,27.857329 C 0.72682192,27.660434 0.46159132,27.365551 0.22825368,26.807096 0.06806415,26.423708 0.04608114,24.909094 0.04836837,14.413133 0.05093283,2.645022 0.05479143,2.4474893 0.29236909,1.9220339 0.61642186,1.2053199 1.1670677,0.64682838 1.8847458,0.30696888 L 2.4779661,0.02604686 h 7.5338979 7.533899 l 0.594084,0.27665091 c 0.612637,0.28529098 1.202325,0.86107273 1.568951,1.53195453 0.19616,0.358949 0.212003,1.1693582 0.242924,12.4263647 0.03678,13.389745 0.07381,12.731007 -0.751093,13.360193 -0.553159,0.421915 -1.190654,0.487761 -1.859193,0.192035 C 17.046707,27.682872 15.529851,26.617729 13.970643,25.44626 12.411436,24.274791 11.019838,23.254299 10.878203,23.178497 10.468532,22.959249 9.4128246,23.008941 8.9889231,23.267427 8.7852036,23.391649 7.3401915,24.450587 5.777785,25.620619 2.4675235,28.09956 2.11241,28.272047 1.1728814,27.85733 Z"
     id="path817"
     inkscape:connector-curvature="0" />
  <path
     style="fill:#ff0000;stroke-width:0.11864407"
     d="M 2.5567999,-0.06548592 C 1.4020345,0.41462611 0.03985374,1.3341086 0.14308738,2.7542407 0.02054959,10.064547 0.08094423,17.378116 0.10108676,24.689386 c 0.11988366,0.962929 -0.26731495,2.27107 0.67906454,2.926504 0.4762505,0.34194 1.1204785,0.730362 1.6679688,0.291048 2.4345089,-1.310453 4.4474721,-3.267664 6.8220339,-4.664426 0.5233051,-0.143472 1.19533,-0.210869 1.662851,0.03886 2.132618,1.52437 4.187082,3.173293 6.408421,4.565778 1.142088,0.566858 2.746927,-0.357763 2.549921,-1.699947 0.139927,-7.632484 0.0753,-15.268875 0.01519,-22.9022243 0.146221,-0.9597464 -0.2656,-1.9043313 -1.029921,-2.48690795 -0.704011,-0.57316497 -1.545175,-1.00815638 -2.479244,-0.83444782 -4.613078,0.0072847 -9.2296653,-0.01453462 -13.8405721,0.01089115 z"
     id="path8"
     inkscape:connector-curvature="0" />
  <path
     style="fill:#000000;stroke-width:0.11864407"
     d="M 9.9078662,-0.08101161 C 7.3812164,-0.0671443 4.8495022,-0.09034389 2.3260004,-0.05343613 1.2621492,0.48699698 0.0920875,1.3606173 0.04575457,2.6533633 0.0839417,10.253338 -0.01889394,17.855212 0.11687232,25.453996 c 0.089375,0.806871 -0.09284915,2.027843 0.88504178,2.360947 0.4971919,0.357308 1.1462956,0.401033 1.6427106,0.0146 2.3528573,-1.28029 4.3130209,-3.176843 6.6290054,-4.496193 0.7288969,-0.232325 1.6073169,-0.259016 2.1554079,0.363322 2.055591,1.45868 4.001774,3.117238 6.234257,4.300641 0.910424,0.172227 2.202022,-0.301165 2.170584,-1.394763 0.258586,-4.233385 0.08407,-8.482317 0.137414,-12.721796 -0.0071,-3.866477 0.01425,-7.7363229 -0.01066,-11.6007013 -0.497613,-1.2651003 -1.69545,-2.49048121 -3.160234,-2.31623846 -2.296835,-0.05909391 -4.595077,-0.0425203 -6.8925338,-0.04482485 z"
     id="path9"
     inkscape:connector-curvature="0" />
</svg>
