<?xml version="1.0" encoding="UTF-8" standalone="no"?>
<svg
   xmlns:dc="http://purl.org/dc/elements/1.1/"
   xmlns:cc="http://creativecommons.org/ns#"
   xmlns:rdf="http://www.w3.org/1999/02/22-rdf-syntax-ns#"
   xmlns:svg="http://www.w3.org/2000/svg"
   xmlns="http://www.w3.org/2000/svg"
   xmlns:sodipodi="http://sodipodi.sourceforge.net/DTD/sodipodi-0.dtd"
   xmlns:inkscape="http://www.inkscape.org/namespaces/inkscape"
   width="20"
   height="28"
   viewBox="0 0 20 28"
   fill="none"
   version="1.1"
   id="svg4"
   sodipodi:docname="Bookmark.svg"
   inkscape:version="0.92.5 (2060ec1f9f, 2020-04-08)">
  <metadata
     id="metadata10">
    <rdf:RDF>
      <cc:Work
         rdf:about="">
        <dc:format>image/svg+xml</dc:format>
        <dc:type
           rdf:resource="http://purl.org/dc/dcmitype/StillImage" />
      </cc:Work>
    </rdf:RDF>
  </metadata>
  <defs
     id="defs8" />
  <sodipodi:namedview
     pagecolor="#ffffff"
     bordercolor="#666666"
     borderopacity="1"
     objecttolerance="10"
     gridtolerance="10"
     guidetolerance="10"
     inkscape:pageopacity="0"
     inkscape:pageshadow="2"
     inkscape:window-width="1366"
     inkscape:window-height="720"
     id="namedview6"
     showgrid="false"
     inkscape:zoom="8.4285714"
     inkscape:cx="-33.966729"
     inkscape:cy="14"
     inkscape:window-x="0"
     inkscape:window-y="22"
     inkscape:window-maximized="1"
     inkscape:current-layer="svg4" />
  <path
     d="M11.8803 22.3092C11.3129 21.8827 10.6116 21.723 10.0004 21.723C9.38891 21.723 8.68771 21.8828 8.12014 22.3089C8.11973 22.3092 8.11933 22.3095 8.11893 22.3098L2.58104 26.4542L2.58 26.455C2.06031 26.8448 1.74887 26.7551 1.64295 26.6985C1.51851 26.6322 1.25 26.3834 1.25 25.705V3.245C1.25 2.10783 2.13165 1.25 3.118 1.25H16.882C17.8684 1.25 18.75 2.10683 18.75 3.246V25.705C18.75 26.384 18.4815 26.6325 18.3576 26.6986C18.2523 26.7549 17.9407 26.8451 17.4194 26.4546L17.419 26.4542L11.8819 22.3104C11.8814 22.31 11.8808 22.3096 11.8803 22.3092Z"
     stroke="#EEEEEE"
     stroke-width="2.5"
     id="path2" />
  <path
     style="fill:#ffcc00;stroke-width:0.11864407"
     d="M 1.1467354,27.824198 C 0.53980109,27.525113 0.18000958,26.962828 0.04731264,26.106011 -0.02480089,25.640378 -0.05503378,21.019031 -0.03211778,13.964407 -0.00140899,4.5107926 0.03339022,2.4974001 0.17258931,2.1205862 0.41765912,1.4571785 1.207064,0.62338246 1.8920896,0.30439211 L 2.4898305,0.02604686 h 7.5338985 7.533898 l 0.599818,0.27930747 c 0.3299,0.15361911 0.795266,0.50764386 1.034146,0.78672157 0.847323,0.9899066 0.806281,0.26621 0.770802,13.5918431 l -0.03188,11.975403 -0.271423,0.436497 c -0.288857,0.464535 -1.080926,0.929765 -1.575357,0.925304 -0.55939,-0.005 -1.298705,-0.469268 -4.103814,-2.576811 -1.557781,-1.170398 -2.948212,-2.190013 -3.089847,-2.265815 -0.409671,-0.219248 -1.465378,-0.169556 -1.8892795,0.08893 -0.2037195,0.124222 -1.655983,1.18859 -3.2272524,2.365259 -3.2669017,2.446471 -3.6964938,2.64995 -4.6267997,2.191513 z M 17.318225,2.7919871 17.136902,2.5152542 h -7.107434 c -6.3031116,0 -7.1285329,0.021099 -7.2938747,0.1864408 -0.1668021,0.1668019 -0.1864408,1.341551 -0.1864408,11.152542 0,6.031356 0.026444,10.966102 0.058764,10.966102 0.03232,0 1.2266149,-0.874324 2.6539887,-1.942943 2.6248646,-1.965133 3.0630341,-2.209455 4.2687773,-2.380257 0.6734955,-0.0954 1.8228025,0.118473 2.5025205,0.465702 0.297755,0.152106 1.635865,1.099604 2.973577,2.105551 l 2.432203,1.828994 0.03028,-10.914333 c 0.0267,-9.6256765 0.0089,-10.9470069 -0.151041,-11.1910659 z"
     id="path819"
     inkscape:connector-curvature="0" />
  <path
     style="fill:#800000;stroke-width:0.11864407"
     d="M 7.638844,-0.07568189 C 5.8485389,-0.00738672 4.0256117,-0.20276203 2.2542108,0.09486896 0.90669406,0.63507706 -0.29563725,1.9920782 -0.03061438,3.5237289 0.00506089,10.97244 -0.10851703,18.423592 0.04446506,25.870757 c -0.06298843,1.069841 0.71460533,2.204158 1.86424124,2.158534 1.3855695,-0.282405 2.4234343,-1.388363 3.5827265,-2.126556 1.3154157,-0.885129 2.4909149,-2.018125 3.924755,-2.709349 0.7397352,-0.190111 1.5002002,-0.0191 2.0780362,0.499826 2.027983,1.361122 3.856316,3.034972 6.005054,4.205617 1.016909,0.441315 2.281548,-0.409723 2.49755,-1.430913 0.04705,-7.877049 0.05093,-15.757054 -0.102423,-23.6328789 0.148035,-1.4539667 -1.26489,-2.41181328 -2.435678,-2.91141417 -3.273295,2.0271e-4 -6.546589,-5.4679e-4 -9.819883,6.9518e-4 z m 9.506588,2.69104209 c 0.379417,0.8172837 0.151224,1.7922201 0.253872,2.6677669 0.113325,6.4778679 -0.002,12.9581369 -0.104641,19.4357159 -1.917821,-1.330718 -3.658978,-2.97014 -5.778104,-3.983845 -1.3801,-0.539789 -2.9882933,-0.303416 -4.1608859,0.60466 C 5.7542188,22.385134 4.2746992,23.602556 2.6836004,24.662765 2.5634685,17.801225 2.6260396,10.929738 2.6942636,4.0676934 2.7801759,3.6571149 2.5870213,3.0492481 2.9065214,2.741883 5.8507939,2.5064933 8.8201125,2.6677994 11.77447,2.6153602 c 1.79032,0 3.580642,0 5.370962,0 z"
     id="path8"
     inkscape:connector-curvature="0" />
  <path
     style="fill:#ff0000;stroke-width:0.11864407"
     d="M 12.408132,-0.06131484 C 9.0233898,-0.03821345 5.6336051,-0.04997335 2.2520139,-0.00315144 0.95155712,0.61951008 -0.23477827,1.8868651 -0.08216912,3.4254767 c -0.0583297,7.2588263 -0.007926,14.5197083 0.07440541,21.7782673 -0.04657524,0.992791 0.10775999,2.191142 1.09674131,2.696011 1.1548858,0.556004 2.2382703,-0.505253 3.1574895,-1.065795 1.7828106,-1.180027 3.3842421,-2.673752 5.3232441,-3.597473 1.1955728,-0.351828 2.1276818,0.787146 3.0580968,1.330343 1.629,1.130722 3.134471,2.491356 4.922107,3.366989 0.791026,0.252458 1.812344,-0.09188 2.218319,-0.820776 0.394417,-1.867001 0.184144,-3.808938 0.25074,-5.706269 C 19.967493,15.08258 20.06416,8.7544291 19.878049,2.4328568 19.841283,1.2957157 18.765705,0.50869476 17.826133,0.06868383 16.042943,-0.19321682 14.20672,-0.00697265 12.408132,-0.06131484 Z m 4.812036,3.08914854 c 0.229533,3.7748461 0.08926,7.5687293 0.126438,11.3518243 -0.04392,3.39065 0.05997,6.799308 -0.179503,10.175818 -1.970846,-1.353616 -3.762805,-3.050554 -5.988977,-3.983151 -1.3485263,-0.316209 -2.798038,-0.055 -3.9093381,0.785726 -1.533984,1.018687 -2.9865137,2.163803 -4.5155492,3.181204 -0.071749,-7.025302 -0.073151,-14.062433 0.050285,-21.0875932 0.045946,-0.35465 0.048109,-0.858004 0.5477044,-0.7155147 4.5811155,-0.1271693 9.1655779,-0.1043261 13.7486739,-0.147899 0.04009,0.1465286 0.08018,0.2930571 0.120266,0.4395856 z"
     id="path9"
     inkscape:connector-curvature="0" />
  <path
     style="fill:#000000;stroke-width:0.11864407"
     d="M 2.2103034,-0.06038793 C 1.1243577,0.57920794 -0.08859808,1.510561 -0.05969133,2.9073359 -0.2707632,7.5876328 -0.11591658,12.277923 -0.13620419,16.962018 c 0.06458617,3.236293 -0.0448681,6.48687 0.23084285,9.713061 0.23307536,0.99344 1.42917694,1.829231 2.40856724,1.269168 2.5704668,-1.253689 4.5502419,-3.514719 7.1851497,-4.619472 1.1101034,-0.28854 1.9808074,0.736152 2.8463554,1.245038 1.693007,1.173773 3.255097,2.616556 5.162583,3.434451 1.065999,0.299658 2.312834,-0.547001 2.245079,-1.704214 0.272532,-4.459694 0.07955,-8.93508 0.111259,-13.400881 C 19.992312,9.3381162 20.113762,5.7676901 19.887111,2.212851 19.582411,0.89539645 18.21743,-0.12296945 16.858675,-0.02655583 11.977814,-0.10821213 7.0881115,-0.07527786 2.2103034,-0.06038793 Z M 17.123075,2.8667837 c 0.1351,7.0713488 0.103346,14.1541983 0.02854,21.2268033 0.117113,0.593072 -0.416588,-0.0096 -0.642695,-0.104901 C 14.709571,22.819208 13.124953,21.198882 11.045347,20.530151 9.6824155,20.201448 8.2360812,20.554317 7.1321784,21.4077 5.663011,22.371848 4.277466,23.457167 2.8086217,24.421537 2.7394417,17.302771 2.7671608,10.173429 2.9182284,3.0544823 3.1928897,2.5242282 4.0143287,2.8946501 4.4937382,2.7601894 8.679501,2.6870464 12.867305,2.6649323 17.054251,2.6213851 c 0.02294,0.0818 0.04588,0.163599 0.06882,0.2453986 z"
     id="path10"
     inkscape:connector-curvature="0" />
</svg>
