<?xml version="1.0" encoding="UTF-8" standalone="no"?>
<svg
   xmlns:dc="http://purl.org/dc/elements/1.1/"
   xmlns:cc="http://creativecommons.org/ns#"
   xmlns:rdf="http://www.w3.org/1999/02/22-rdf-syntax-ns#"
   xmlns:svg="http://www.w3.org/2000/svg"
   xmlns="http://www.w3.org/2000/svg"
   xmlns:sodipodi="http://sodipodi.sourceforge.net/DTD/sodipodi-0.dtd"
   xmlns:inkscape="http://www.inkscape.org/namespaces/inkscape"
   width="16"
   height="16"
   viewBox="0 0 16 16"
   fill="none"
   version="1.1"
   id="svg10"
   sodipodi:docname="Close Tab.svg"
   inkscape:version="0.92.5 (2060ec1f9f, 2020-04-08)">
  <metadata
     id="metadata16">
    <rdf:RDF>
      <cc:Work
         rdf:about="">
        <dc:format>image/svg+xml</dc:format>
        <dc:type
           rdf:resource="http://purl.org/dc/dcmitype/StillImage" />
      </cc:Work>
    </rdf:RDF>
  </metadata>
  <defs
     id="defs14" />
  <sodipodi:namedview
     pagecolor="#ffffff"
     bordercolor="#666666"
     borderopacity="1"
     objecttolerance="10"
     gridtolerance="10"
     guidetolerance="10"
     inkscape:pageopacity="0"
     inkscape:pageshadow="2"
     inkscape:window-width="797"
     inkscape:window-height="480"
     id="namedview12"
     showgrid="false"
     inkscape:zoom="14.75"
     inkscape:cx="-4.2372881"
     inkscape:cy="8"
     inkscape:window-x="0"
     inkscape:window-y="22"
     inkscape:window-maximized="0"
     inkscape:current-layer="svg10" />
  <path
     d="M11.25 11.25L4.75 4.75Z"
     fill="#EEEEEE"
     id="path2" />
  <path
     d="M11.25 11.25L4.75 4.75"
     stroke="#EEEEEE"
     stroke-width="1.5"
     stroke-linecap="round"
     stroke-linejoin="round"
     id="path4" />
  <path
     d="M4.75 11.25L11.25 4.75Z"
     fill="#EEEEEE"
     id="path6" />
  <path
     d="M4.75 11.25L11.25 4.75"
     stroke="#EEEEEE"
     stroke-width="1.5"
     stroke-linecap="round"
     stroke-linejoin="round"
     id="path8" />
  <path
     style="fill:#ffcc00;stroke-width:0.06779661"
     d="M 4.3906828,11.907431 C 4.1633447,11.784079 4,11.484096 4,11.189942 4,10.993689 4.1601016,10.809056 5.4732538,9.4909428 L 6.9465075,8.0121239 5.5482514,6.606062 C 4.7792105,5.8327279 4.1162463,5.1333616 4.0749976,5.0519146 3.9309689,4.7675252 3.9843489,4.4902274 4.2305085,4.2440678 4.4211467,4.0534295 4.5114177,4.0135593 4.7524073,4.0135593 c 0.2890103,0 0.3034629,0.012027 1.7694915,1.4725387 L 8,6.9586367 9.4781012,5.486098 C 10.944129,4.0255865 10.958582,4.0135593 11.247593,4.0135593 c 0.54242,0 0.914465,0.570282 0.67741,1.0383553 -0.04125,0.081447 -0.704213,0.7808133 -1.473254,1.5541474 L 9.0534925,8.0121239 10.526746,9.4909428 C 11.839898,10.809056 12,10.993689 12,11.189942 c 0,0.580047 -0.56578,0.987955 -1.038355,0.74862 -0.08145,-0.04125 -0.781137,-0.704536 -1.5548653,-1.473971 L 8,9.0656176 6.5932203,10.464591 c -0.7737288,0.769435 -1.473418,1.432722 -1.554865,1.473971 -0.1995817,0.101077 -0.4238822,0.0903 -0.6476725,-0.03113 z"
     id="path18"
     inkscape:connector-curvature="0" />
  <path
     style="fill:#000000;stroke-width:0.06779661"
     d="M 4.7380561,3.9428496 C 4.1499782,3.9596004 3.6326073,4.7770311 4.1444386,5.2239672 4.9977978,6.1941087 5.9372929,7.0844098 6.834322,8.0135593 5.9124284,8.9962114 4.8779926,9.8823563 4.0410222,10.940334 3.646676,11.522057 4.4609378,12.305758 5.0514831,11.976748 6.1111963,11.139574 7.0050426,10.108066 7.9934852,9.1890096 9.0203201,10.142095 9.9614705,11.20653 11.074656,12.057388 11.743792,12.236502 12.398139,11.286492 11.852463,10.785275 10.99445,9.8218211 10.053388,8.9359508 9.1572828,8.0083951 10.086557,7.0160616 11.133489,6.1228361 11.972961,5.0516949 12.382245,4.3854778 11.328391,3.5519059 10.792346,4.1453125 9.8169938,5.0007974 8.9213035,5.9414793 7.99375,6.8473782 6.9815793,5.893775 6.0625197,4.8269592 4.959322,3.9770127 4.8912597,3.9444185 4.8122407,3.9410842 4.7380561,3.9428496 Z"
     id="path11"
     inkscape:connector-curvature="0" />
</svg>
