<?xml version="1.0" encoding="UTF-8" standalone="no"?>
<svg
   xmlns:dc="http://purl.org/dc/elements/1.1/"
   xmlns:cc="http://creativecommons.org/ns#"
   xmlns:rdf="http://www.w3.org/1999/02/22-rdf-syntax-ns#"
   xmlns:svg="http://www.w3.org/2000/svg"
   xmlns="http://www.w3.org/2000/svg"
   xmlns:sodipodi="http://sodipodi.sourceforge.net/DTD/sodipodi-0.dtd"
   xmlns:inkscape="http://www.inkscape.org/namespaces/inkscape"
   width="32"
   height="32"
   viewBox="0 0 32 32"
   fill="none"
   version="1.1"
   id="svg4"
   sodipodi:docname="Forward Button.svg"
   inkscape:version="0.92.5 (2060ec1f9f, 2020-04-08)">
  <metadata
     id="metadata10">
    <rdf:RDF>
      <cc:Work
         rdf:about="">
        <dc:format>image/svg+xml</dc:format>
        <dc:type
           rdf:resource="http://purl.org/dc/dcmitype/StillImage" />
      </cc:Work>
    </rdf:RDF>
  </metadata>
  <defs
     id="defs8" />
  <sodipodi:namedview
     pagecolor="#ffffff"
     bordercolor="#666666"
     borderopacity="1"
     objecttolerance="10"
     gridtolerance="10"
     guidetolerance="10"
     inkscape:pageopacity="0"
     inkscape:pageshadow="2"
     inkscape:window-width="1366"
     inkscape:window-height="720"
     id="namedview6"
     showgrid="false"
     inkscape:zoom="7.375"
     inkscape:cx="-33.084746"
     inkscape:cy="16"
     inkscape:window-x="0"
     inkscape:window-y="22"
     inkscape:window-maximized="1"
     inkscape:current-layer="svg4" />
  <path
     d="M24.0077 14.426C25.0298 15.2267 25.0298 16.7739 24.0077 17.5747L10.4593 28.1895C9.14661 29.2179 7.22583 28.2827 7.22583 26.6151L7.22583 5.38555C7.22583 3.71798 9.14661 2.78276 10.4593 3.8112L24.0077 14.426Z"
     stroke="#EEEEEE"
     stroke-width="3"
     id="path2" />
  <path
     style="fill:#ffcc00;stroke-width:0.13559322"
     d="M 7.7966102,29.782664 C 7.4237288,29.608655 6.893274,29.216277 6.6178218,28.910713 5.6700715,27.859357 5.6949153,28.206902 5.6949153,16 5.6949153,3.7930984 5.6700715,4.1406426 6.6178218,3.0892873 7.6493436,1.9450029 9.2881532,1.581973 10.609114,2.2051345 11.495259,2.6231725 25.174136,13.36429 25.642697,14.010014 c 0.816925,1.125802 0.816964,2.853968 9.1e-5,3.979972 -0.469279,0.64687 -14.146919,11.387651 -15.032696,11.804879 -0.8705001,0.410034 -1.9184234,0.405489 -2.8134818,-0.0122 z m 8.5291128,-8.087749 c 3.766354,-2.945762 6.879392,-5.432203 6.917859,-5.525423 0.03847,-0.09322 0.03847,-0.245763 0,-0.338984 C 23.14838,15.599801 9.5345768,4.9616302 9.2563226,4.9005097 8.6798605,4.7738857 8.6779661,4.8101337 8.6779661,15.967033 c 0,7.274391 0.045672,10.712406 0.1447676,10.897568 0.083567,0.156146 0.2526328,0.252691 0.3999192,0.228373 0.1403333,-0.02317 3.3367151,-2.452296 7.1030701,-5.398059 z"
     id="path817"
     inkscape:connector-curvature="0" />
  <path
     style="fill:#000000;stroke-width:0.13559322"
     d="M 9.2127649,1.8472987 C 7.8142228,1.949855 6.3296852,2.8518503 5.8981462,4.2299788 5.6458456,9.5452631 5.8060654,14.874763 5.7598246,20.19555 c 0.071383,2.542611 -0.1317433,5.112003 0.1883746,7.638771 0.6658018,2.144968 3.7428789,3.034852 5.4036018,1.480933 4.670629,-3.463456 9.273451,-7.028458 13.71928,-10.776482 0.967097,-0.722215 1.352095,-1.948388 1.142743,-3.115996 -0.197573,-1.778313 -2.048412,-2.60396 -3.20886,-3.703182 C 19.02213,8.5760294 15.097734,5.3427486 10.947669,2.4214513 10.42557,2.0998413 9.8424438,1.8151064 9.2127649,1.8472987 Z m -0.082892,3.067267 c 2.5971791,1.7615043 5.0160101,3.8204666 7.5237591,5.7222323 2.172988,1.779195 4.522813,3.384349 6.519144,5.356158 -2.944348,2.73918 -6.214231,5.113542 -9.36827,7.605253 -1.576845,1.1405 -3.068532,2.494674 -4.7532877,3.436059 C 8.6476495,26.603421 8.9902683,25.831269 8.8540038,25.289387 8.8189649,18.855188 8.7229852,12.412889 8.8835805,5.9831567 8.9547378,5.672611 8.8614762,5.1421496 9.1298729,4.9145657 Z"
     id="path8"
     inkscape:connector-curvature="0" />
</svg>
