<?xml version="1.0" encoding="UTF-8" standalone="no"?>
<svg
   xmlns:dc="http://purl.org/dc/elements/1.1/"
   xmlns:cc="http://creativecommons.org/ns#"
   xmlns:rdf="http://www.w3.org/1999/02/22-rdf-syntax-ns#"
   xmlns:svg="http://www.w3.org/2000/svg"
   xmlns="http://www.w3.org/2000/svg"
   xmlns:sodipodi="http://sodipodi.sourceforge.net/DTD/sodipodi-0.dtd"
   xmlns:inkscape="http://www.inkscape.org/namespaces/inkscape"
   width="32"
   height="32"
   viewBox="0 0 32 32"
   fill="none"
   version="1.1"
   id="svg4"
   sodipodi:docname="Lock.svg"
   inkscape:version="0.92.5 (2060ec1f9f, 2020-04-08)">
  <metadata
     id="metadata10">
    <rdf:RDF>
      <cc:Work
         rdf:about="">
        <dc:format>image/svg+xml</dc:format>
        <dc:type
           rdf:resource="http://purl.org/dc/dcmitype/StillImage" />
      </cc:Work>
    </rdf:RDF>
  </metadata>
  <defs
     id="defs8" />
  <sodipodi:namedview
     pagecolor="#ffffff"
     bordercolor="#666666"
     borderopacity="1"
     objecttolerance="10"
     gridtolerance="10"
     guidetolerance="10"
     inkscape:pageopacity="0"
     inkscape:pageshadow="2"
     inkscape:window-width="1366"
     inkscape:window-height="720"
     id="namedview6"
     showgrid="false"
     inkscape:zoom="7.375"
     inkscape:cx="-22.305085"
     inkscape:cy="16"
     inkscape:window-x="0"
     inkscape:window-y="22"
     inkscape:window-maximized="1"
     inkscape:current-layer="svg4" />
  <path
     d="M22 27H10C9.46957 27 8.96086 26.7893 8.58579 26.4142C8.21071 26.0391 8 25.5304 8 25V15C8 14.4696 8.21071 13.9609 8.58579 13.5858C8.96086 13.2107 9.46957 13 10 13H11V11C11 9.67392 11.5268 8.40215 12.4645 7.46447C13.4021 6.52678 14.6739 6 16 6C17.3261 6 18.5979 6.52678 19.5355 7.46447C20.4732 8.40215 21 9.67392 21 11V13H22C22.5304 13 23.0391 13.2107 23.4142 13.5858C23.7893 13.9609 24 14.4696 24 15V25C24 25.5304 23.7893 26.0391 23.4142 26.4142C23.0391 26.7893 22.5304 27 22 27ZM16 8C15.2044 8 14.4413 8.31607 13.8787 8.87868C13.3161 9.44129 13 10.2044 13 11V13H19V11C19 10.2044 18.6839 9.44129 18.1213 8.87868C17.5587 8.31607 16.7956 8 16 8Z"
     fill="#9AA0A6"
     id="path2" />
  <path
     style="fill:#ffcc00;stroke-width:0.13559322"
     d="m 9.4936847,26.874466 c -0.7332428,-0.177274 -1.3170371,-0.908193 -1.423202,-1.781867 -0.048554,-0.399574 -0.069022,-2.953616 -0.045483,-5.67565 0.039476,-4.565121 0.062636,-4.981921 0.2984639,-5.371452 0.3638231,-0.600948 0.9758937,-0.920863 1.9138244,-1.000312 l 0.813559,-0.06891 0.0706,-1.694915 c 0.08097,-1.943751 0.284232,-2.5189133 1.282637,-3.6293801 1.864728,-2.0740264 5.324201,-2.0772509 7.185806,-0.0067 0.985633,1.096261 1.196203,1.692886 1.283295,3.6360781 l 0.07597,1.694915 0.813559,0.06891 c 0.937931,0.07945 1.550001,0.399364 1.913825,1.000312 0.239517,0.395624 0.255666,0.774982 0.255666,6.005627 0,5.427648 -0.0078,5.593765 -0.279564,5.957723 -0.15376,0.205918 -0.447985,0.500201 -0.653835,0.653961 -0.364404,0.272197 -0.541094,0.280175 -6.703486,0.30272 -3.481069,0.01273 -6.5418036,-0.02824 -6.8016329,-0.09106 z M 19.029634,11.605903 C 19.012994,10.531 18.949892,10.121706 18.736967,9.7075978 17.538855,7.3774446 14.415878,7.4115051 13.226251,9.7676998 c -0.237472,0.4703422 -0.452197,2.6655722 -0.299622,3.0631762 0.07418,0.193302 0.430844,0.214203 3.104012,0.181896 l 3.020206,-0.0365 z"
     id="path12"
     inkscape:connector-curvature="0" />
  <path
     style="fill:#000000;stroke-width:0.13559322"
     d="m 15.96303,6.1018008 c -2.535676,-0.1127678 -4.824463,2.1509789 -4.870498,4.6644602 -0.06222,0.708971 -0.04236,1.421386 -0.04687,2.13215 -1.039967,0.159367 -2.5912889,0.227211 -2.8789727,1.504502 -0.2792946,3.50725 -0.091585,7.040299 -0.1704752,10.557164 0.053475,0.750762 0.6083464,1.639977 1.380221,1.876364 3.5323799,0.25456 7.0872629,0.03972 10.6278649,0.08468 0.963239,-0.02692 1.945384,0.03394 2.89703,-0.04681 0.83479,-0.624968 1.088877,-1.648591 1.057467,-2.640625 0.05221,-3.343081 0.01109,-6.702311 -0.06435,-10.035753 C 23.341064,13.457936 22.51872,13.01211 21.591737,12.988718 21.215752,13.000094 20.87614,12.808814 20.991102,12.391525 20.905998,10.57868 20.821663,8.4383851 19.218326,7.2487818 18.332545,6.4499852 17.150067,6.0556413 15.96303,6.1018008 Z m -0.0053,1.9541844 c 1.580009,-0.048838 3.02838,1.3669222 2.980667,2.9716628 -0.01129,0.612316 0.27512,1.53477 0.0019,1.916314 -1.945886,0 -3.891772,0 -5.837659,0 -0.449603,-1.034944 -0.02508,-2.234279 0.274365,-3.2571506 0.436156,-1.0015295 1.514527,-1.6293587 2.580773,-1.6308262 z"
     id="path8"
     inkscape:connector-curvature="0" />
</svg>
