<?xml version="1.0" encoding="UTF-8" standalone="no"?>
<svg
   xmlns:dc="http://purl.org/dc/elements/1.1/"
   xmlns:cc="http://creativecommons.org/ns#"
   xmlns:rdf="http://www.w3.org/1999/02/22-rdf-syntax-ns#"
   xmlns:svg="http://www.w3.org/2000/svg"
   xmlns="http://www.w3.org/2000/svg"
   xmlns:sodipodi="http://sodipodi.sourceforge.net/DTD/sodipodi-0.dtd"
   xmlns:inkscape="http://www.inkscape.org/namespaces/inkscape"
   width="18"
   height="25"
   viewBox="0 0 18 25"
   fill="none"
   version="1.1"
   id="svg8"
   sodipodi:docname="Menu.svg"
   inkscape:version="0.92.5 (2060ec1f9f, 2020-04-08)">
  <metadata
     id="metadata14">
    <rdf:RDF>
      <cc:Work
         rdf:about="">
        <dc:format>image/svg+xml</dc:format>
        <dc:type
           rdf:resource="http://purl.org/dc/dcmitype/StillImage" />
      </cc:Work>
    </rdf:RDF>
  </metadata>
  <defs
     id="defs12" />
  <sodipodi:namedview
     pagecolor="#ffffff"
     bordercolor="#666666"
     borderopacity="1"
     objecttolerance="10"
     gridtolerance="10"
     guidetolerance="10"
     inkscape:pageopacity="0"
     inkscape:pageshadow="2"
     inkscape:window-width="1366"
     inkscape:window-height="720"
     id="namedview10"
     showgrid="false"
     inkscape:zoom="9.44"
     inkscape:cx="-20.925847"
     inkscape:cy="12.5"
     inkscape:window-x="0"
     inkscape:window-y="22"
     inkscape:window-maximized="1"
     inkscape:current-layer="svg8" />
  <rect
     width="18"
     height="3"
     rx="1.5"
     transform="matrix(1 0 0 -1 0 3)"
     fill="#EEEEEE"
     id="rect2" />
  <rect
     width="18"
     height="3"
     rx="1.5"
     transform="matrix(1 0 0 -1 0 14)"
     fill="#EEEEEE"
     id="rect4" />
  <rect
     width="18"
     height="3"
     rx="1.5"
     transform="matrix(1 0 0 -1 0 25)"
     fill="#EEEEEE"
     id="rect6" />
  <path
     style="fill:#ffcc00;stroke-width:0.10593221"
     d="m 0.76280297,2.775996 c -0.44606632,-0.2719699 -0.7662483,-0.8033829 -0.7662483,-1.2717587 0,-0.4679734 0.31981088,-0.99923573 0.7662483,-1.27287358 C 1.1009784,0.02408364 1.2722583,0.02030588 9.1239162,0.04695059 l 8.0158658,0.02720195 0.283394,0.26483051 C 18.250385,1.1120041 18.166644,2.209305 17.237197,2.775996 16.900852,2.9810683 16.68845,2.9864962 9,2.9864962 c -7.6884505,0 -7.9008516,-0.00543 -8.23719703,-0.2105002 z"
     id="path16"
     inkscape:connector-curvature="0" />
  <path
     style="fill:#ffcc00;stroke-width:0.10593221"
     d="M 0.78398941,13.792945 C -0.17041669,13.211037 -0.23207362,11.804311 0.67265089,11.252716 1.0161894,11.043266 1.1860646,11.03892 9.0439835,11.038532 l 8.0206785,-3.96e-4 0.367981,0.323091 c 0.642862,0.564441 0.749943,1.432511 0.254414,2.062474 -0.467164,0.593902 -0.266261,0.58057 -8.7419173,0.58014 -7.6122019,-3.81e-4 -7.8249004,-0.0059 -8.16115029,-0.210896 z"
     id="path18"
     inkscape:connector-curvature="0" />
  <path
     style="fill:#ffcc00;stroke-width:0.10593221"
     d="M 0.86651833,24.83564 C -0.21414424,24.292697 -0.26406657,22.762822 0.78027304,22.192643 1.1073661,22.01406 1.6238624,22.002119 9.0211864,22.002119 c 7.6754926,0 7.9014536,0.0057 8.2384786,0.20955 0.729095,0.440891 0.947057,1.473009 0.456545,2.161871 -0.478048,0.671356 -0.159285,0.647663 -8.711033,0.647482 -7.1859949,-1.48e-4 -7.7977162,-0.01409 -8.13865867,-0.185382 z"
     id="path20"
     inkscape:connector-curvature="0" />
  <path
     style="fill:#000000;stroke-width:0.10593221"
     d="M 0.9117867,0.05201437 C 0.22639754,0.49010791 -0.35666464,1.4180408 0.16550257,2.1950725 0.4579127,2.7957908 1.1097952,3.0093272 1.73752,2.9574947 6.888914,3.0902752 12.047606,3.1148041 17.198035,2.9283219 17.795699,2.5120177 18.24297,1.7598999 17.93356,1.0229906 17.675199,0.45722672 17.206447,-0.17121335 16.502648,0.02718651 11.307261,0.04381155 6.0996377,-0.00593613 0.9117867,0.05201437 Z"
     id="path12"
     inkscape:connector-curvature="0" />
  <path
     style="fill:#000000;stroke-width:0.10593221"
     d="m 9.0519316,10.957238 c -2.707628,0.06339 -5.4285455,-0.06569 -8.12802064,0.159933 -0.84022769,0.229948 -1.26041783,1.361462 -0.72580115,2.076644 0.17879051,0.526241 0.67451364,0.777407 1.20822539,0.741227 4.2682612,0.221503 8.5483264,0.130875 12.8210848,0.104024 1.02922,-0.0331 2.075619,-0.03635 3.091362,-0.14614 0.633067,-0.512807 0.991361,-1.466149 0.459522,-2.178438 -0.312568,-0.419539 -0.641673,-0.98472 -1.254005,-0.800528 -2.490789,0.01443 -4.981579,0.02885 -7.4723674,0.04328 z"
     id="path14"
     inkscape:connector-curvature="0" />
  <path
     style="fill:#000000;stroke-width:0.10593221"
     d="m 0.84487558,22.035016 c -0.60734878,0.441503 -1.14428843,1.238708 -0.73655986,1.991401 0.17256141,0.678225 0.85340456,0.978104 1.50448938,0.945649 4.6228888,0.172171 9.2540669,0.144494 13.8787359,0.05119 0.830743,-0.06958 2.023843,0.103823 2.406558,-0.864424 0.367029,-0.79885 -0.155486,-1.822534 -0.883872,-2.150713 -5.388017,0.01798 -10.7898603,-0.03587 -16.16935142,0.0269 z"
     id="path17"
     inkscape:connector-curvature="0" />
</svg>
