<?xml version="1.0" encoding="UTF-8" standalone="no"?>
<svg
   xmlns:dc="http://purl.org/dc/elements/1.1/"
   xmlns:cc="http://creativecommons.org/ns#"
   xmlns:rdf="http://www.w3.org/1999/02/22-rdf-syntax-ns#"
   xmlns:svg="http://www.w3.org/2000/svg"
   xmlns="http://www.w3.org/2000/svg"
   xmlns:sodipodi="http://sodipodi.sourceforge.net/DTD/sodipodi-0.dtd"
   xmlns:inkscape="http://www.inkscape.org/namespaces/inkscape"
   width="32"
   height="32"
   viewBox="0 0 32 32"
   fill="none"
   version="1.1"
   id="svg4"
   sodipodi:docname="New Tab.svg"
   inkscape:version="0.92.5 (2060ec1f9f, 2020-04-08)">
  <metadata
     id="metadata10">
    <rdf:RDF>
      <cc:Work
         rdf:about="">
        <dc:format>image/svg+xml</dc:format>
        <dc:type
           rdf:resource="http://purl.org/dc/dcmitype/StillImage" />
      </cc:Work>
    </rdf:RDF>
  </metadata>
  <defs
     id="defs8" />
  <sodipodi:namedview
     pagecolor="#ffffff"
     bordercolor="#666666"
     borderopacity="1"
     objecttolerance="10"
     gridtolerance="10"
     guidetolerance="10"
     inkscape:pageopacity="0"
     inkscape:pageshadow="2"
     inkscape:window-width="797"
     inkscape:window-height="480"
     id="namedview6"
     showgrid="false"
     inkscape:zoom="7.375"
     inkscape:cx="13.954345"
     inkscape:cy="16"
     inkscape:window-x="0"
     inkscape:window-y="22"
     inkscape:window-maximized="0"
     inkscape:current-layer="svg4" />
  <path
     d="M16 4C16.5304 4 17.0391 4.21071 17.4142 4.58579C17.7893 4.96086 18 5.46957 18 6V26C18 26.5304 17.7893 27.0391 17.4142 27.4142C17.0391 27.7893 16.5304 28 16 28C15.4696 28 14.9609 27.7893 14.5858 27.4142C14.2107 27.0391 14 26.5304 14 26V6C14 5.46957 14.2107 4.96086 14.5858 4.58579C14.9609 4.21071 15.4696 4 16 4ZM6 14H26C26.5304 14 27.0391 14.2107 27.4142 14.5858C27.7893 14.9609 28 15.4696 28 16C28 16.5304 27.7893 17.0391 27.4142 17.4142C27.0391 17.7893 26.5304 18 26 18H6C5.46957 18 4.96086 17.7893 4.58579 17.4142C4.21071 17.0391 4 16.5304 4 16C4 15.4696 4.21071 14.9609 4.58579 14.5858C4.96086 14.2107 5.46957 14 6 14V14Z"
     fill="#EEEEEE"
     id="path2" />
  <path
     style="fill:#ffcc00;stroke-width:0.13559322"
     d="m 14.977248,27.706708 c -0.22692,-0.138381 -0.532005,-0.427983 -0.677966,-0.643561 -0.247265,-0.365201 -0.268177,-0.685392 -0.306293,-4.689943 l -0.04091,-4.297982 -4.2302773,-0.041 C 5.7522716,17.995748 5.4625692,17.976209 5.0217471,17.717237 4.3900777,17.346144 4.0451977,16.718853 4.0451977,15.94102 c 0,-0.681754 0.2418784,-1.117625 0.8881342,-1.600438 0.3568192,-0.266578 0.5750704,-0.28139 4.698104,-0.318846 l 4.3239011,-0.03928 0.03928,-4.3239014 C 14.032073,5.5355209 14.046886,5.3172697 14.313463,4.9604505 14.814708,4.2895233 15.288875,4.0271186 16,4.0271186 c 0.711125,0 1.185292,0.2624047 1.686537,0.9333319 0.266578,0.3568192 0.28139,0.5750704 0.318845,4.6981041 l 0.03928,4.3239014 4.323901,0.03928 c 4.123033,0.03746 4.341285,0.05227 4.698104,0.318846 0.646255,0.482813 0.888135,0.918684 0.888135,1.600438 0,0.777833 -0.34488,1.405124 -0.976549,1.776217 -0.440823,0.258972 -0.730525,0.278511 -4.700057,0.316984 l -4.230277,0.041 -0.04091,4.297982 c -0.04047,4.251699 -0.04431,4.30275 -0.356683,4.740707 -0.173676,0.243498 -0.490985,0.533328 -0.705131,0.644067 -0.535928,0.277139 -1.469287,0.252822 -1.967948,-0.05127 z"
     id="path12"
     inkscape:connector-curvature="0" />
  <path
     style="fill:#000000;stroke-width:0.13559322"
     d="m 15.926324,4.0024894 c -1.160583,0.00673 -2.077205,1.1128339 -1.912991,2.2551543 -0.08039,2.5319855 -0.08108,5.0660433 -0.125674,7.5989243 -2.75597,0.199064 -5.5245755,0.07937 -8.2780722,0.26483 -1.7003512,0.06369 -2.1105229,2.585771 -0.8072034,3.454184 1.2696046,0.75201 2.8529589,0.321291 4.251589,0.465043 1.6102376,0.02438 3.2227146,0.09349 4.8334216,0.157839 0.112974,2.889182 -0.05836,5.804975 0.286812,8.677701 0.65149,1.509606 3.25177,1.446768 3.680614,-0.20392 0.375379,-2.518283 0.112667,-5.090113 0.197503,-7.628177 -0.355371,-1.100332 0.601384,-0.89988 1.359634,-0.903846 2.446953,-0.120783 4.923078,0.02801 7.351761,-0.315434 1.62394,-0.476196 1.611456,-3.333045 -0.114671,-3.669491 -2.421142,-0.263829 -4.87256,-0.05903 -7.30313,-0.244043 -1.054148,0.180731 -1.535503,-0.1929 -1.284602,-1.275223 C 17.96435,10.15776 18.157708,7.6510568 17.839989,5.1897246 17.550983,4.4440755 16.7119,3.9657225 15.926324,4.0024894 Z"
     id="path8"
     inkscape:connector-curvature="0" />
</svg>
