<?xml version="1.0" encoding="UTF-8" standalone="no"?>
<!--part of the rodentia icon theme by sixsixfive released under CC0 (https://creativecommons.org/publicdomain/zero/1.0/) on openclipart-->

<svg
   xmlns:dc="http://purl.org/dc/elements/1.1/"
   xmlns:cc="http://creativecommons.org/ns#"
   xmlns:rdf="http://www.w3.org/1999/02/22-rdf-syntax-ns#"
   xmlns:svg="http://www.w3.org/2000/svg"
   xmlns="http://www.w3.org/2000/svg"
   xmlns:xlink="http://www.w3.org/1999/xlink"
   xmlns:sodipodi="http://sodipodi.sourceforge.net/DTD/sodipodi-0.dtd"
   xmlns:inkscape="http://www.inkscape.org/namespaces/inkscape"
   viewBox="0 0 48 48"
   version="1.1"
   id="svg26"
   sodipodi:docname="Plugins.svg"
   inkscape:version="0.92.5 (2060ec1f9f, 2020-04-08)">
  <metadata
     id="metadata30">
    <rdf:RDF>
      <cc:Work
         rdf:about="">
        <dc:format>image/svg+xml</dc:format>
        <dc:type
           rdf:resource="http://purl.org/dc/dcmitype/StillImage" />
      </cc:Work>
    </rdf:RDF>
  </metadata>
  <sodipodi:namedview
     pagecolor="#ffffff"
     bordercolor="#666666"
     borderopacity="1"
     objecttolerance="10"
     gridtolerance="10"
     guidetolerance="10"
     inkscape:pageopacity="0"
     inkscape:pageshadow="2"
     inkscape:window-width="1366"
     inkscape:window-height="720"
     id="namedview28"
     showgrid="false"
     inkscape:zoom="4.9264801"
     inkscape:cx="4.1362798"
     inkscape:cy="3.4639481"
     inkscape:window-x="0"
     inkscape:window-y="22"
     inkscape:window-maximized="1"
     inkscape:current-layer="svg26" />
  <defs
     id="0">
    <linearGradient
       id="2">
      <stop
         id="G"
         stop-color="#2e3436" />
      <stop
         id="H"
         offset="1"
         stop-color="#2e3436"
         stop-opacity="0" />
    </linearGradient>
    <linearGradient
       id="3">
      <stop
         id="I"
         stop-color="#fff" />
      <stop
         id="J"
         offset="1"
         stop-color="#fff"
         stop-opacity="0" />
    </linearGradient>
    <linearGradient
       id="4">
      <stop
         id="K"
         stop-color="#fff"
         stop-opacity="0.8" />
      <stop
         id="L"
         offset="1"
         stop-color="#fff"
         stop-opacity="0" />
    </linearGradient>
    <linearGradient
       id="5">
      <stop
         id="M"
         stop-color="#bed855" />
      <stop
         id="N"
         offset="1"
         stop-color="#8bb300" />
    </linearGradient>
    <radialGradient
       cx="26.05"
       cy="44.815"
       r="18.211"
       id="6"
       xlink:href="#2"
       gradientUnits="userSpaceOnUse"
       gradientTransform="matrix(1,0,0,0.1210762,0,39.389021)" />
    <radialGradient
       cx="15.744"
       cy="15.63"
       r="19.724"
       id="7"
       xlink:href="#5"
       gradientUnits="userSpaceOnUse"
       gradientTransform="matrix(-0.08887371,1.4551706,-2.1149236,-0.1291678,49.664576,-13.450754)" />
    <linearGradient
       y1="2.961"
       x2="0"
       y2="42.38"
       id="8"
       xlink:href="#4"
       gradientUnits="userSpaceOnUse" />
    <linearGradient
       x1="11.614"
       y1="-19.04"
       x2="29.13"
       y2="32.2"
       id="9"
       xlink:href="#3"
       gradientUnits="userSpaceOnUse" />
  </defs>
  <g
     transform="translate(-0.03414314,0.4117447)"
     id="1">
    <path
       d="m 44.262516,44.81506 a 18.21133,2.2049592 0 1 1 -36.4226608,0 18.21133,2.2049592 0 1 1 36.4226608,0 z"
       transform="matrix(0.5359471,0,0,1.0561555,22.351252,-4.4765779)"
       id="A"
       opacity="0.6"
       fill="url(#6)" />
    <path
       d="m 44.262516,44.81506 a 18.21133,2.2049592 0 1 1 -36.4226608,0 18.21133,2.2049592 0 1 1 36.4226608,0 z"
       transform="matrix(0.5359471,0,0,1.0561555,3.3509566,-4.4765779)"
       id="B"
       opacity="0.6"
       fill="url(#6)" />
    <path
       d="M 26.21875,2 C 24.335217,2.069339 22.178249,2.6243091 20.875,4.1875 20.81921,4.256973 20.78504,4.3243256 20.75,4.40625 20.328642,5.3040421 20.155371,6.092977 20.4375,6.8125 c 0.28489,0.7265652 0.918516,1.0350658 1.375,1.21875 0.441985,0.1778501 0.843705,0.3073913 1.0625,0.4375 0.126669,0.075325 0.182316,0.1431533 0.21875,0.1875 0.03643,0.044347 0.06474,0.1002089 0.09375,0.25 0.07074,0.3652309 0.0095,0.4967758 -0.0625,0.625 -0.05891,0.1049058 -0.157572,0.1841839 -0.34375,0.28125 -0.17417,0.090806 -0.344364,0.1482433 -0.5,0.1875 -0.07782,0.01963 -0.170727,0.05387 -0.21875,0.0625 -0.04802,0.0086 -0.09972,0.003 -0.0625,0 l -10.9375,0 c -0.521258,0.01131 -0.957441,0.447492 -0.96875,0.96875 l 0,11.03125 0,0.03125 0,0.03125 c -0.01729,0.124048 -0.097022,0.505314 -0.25,0.75 -0.1022388,0.16353 -0.1920921,0.236826 -0.28125,0.28125 -0.089158,0.04442 -0.2373419,0.06903 -0.59375,0 C 8.8193644,23.12731 8.763537,23.09923 8.71875,23.0625 8.673963,23.025775 8.6358512,22.968751 8.5625,22.84375 8.4417165,22.637918 8.3014306,22.23112 8.125,21.78125 7.9441919,21.320218 7.6306319,20.692728 6.90625,20.40625 6.1863275,20.121536 5.3971522,20.297693 4.5,20.71875 c -0.081924,0.03504 -0.1492774,0.06921 -0.21875,0.125 -1.3108069,1.092835 -1.9446262,2.799086 -2.15625,4.4375 -0.00293,0.0227 0.00151,0.01528 0,0.03125 -3.786e-4,0.004 4.258e-4,0.0233 0,0.03125 3.889e-4,-0.0058 -0.00417,-0.0308 0,0.03125 5.605e-4,0.0083 4.1e-5,0.03145 0,0.03125 5.3e-6,7.2e-5 -9.6e-6,0.09372 0,0.09375 -0.097019,0.561171 -0.1475863,1.136461 -0.125,1.75 0.069339,1.883533 0.6243064,4.040502 2.1875,5.34375 0.069473,0.05579 0.1368256,0.08996 0.21875,0.125 0.8971521,0.421059 1.6863273,0.597215 2.40625,0.3125 0.7243812,-0.286479 1.0379419,-0.913966 1.21875,-1.375 0.1764304,-0.449871 0.3167163,-0.856668 0.4375,-1.0625 0.073351,-0.125001 0.111463,-0.182025 0.15625,-0.21875 0.044787,-0.03673 0.1006148,-0.06482 0.25,-0.09375 0.3652305,-0.07074 0.4967764,-0.0095 0.625,0.0625 0.1049065,0.05891 0.1841841,0.157572 0.28125,0.34375 0.177654,0.34075 0.245577,0.749581 0.25,0.78125 l 0,0.03125 0.0625,10.875 c 0.01131,0.521258 0.447492,0.957441 0.96875,0.96875 0,0 11,-0.0625 11,-0.0625 0.01522,3.55e-4 0.01603,3.55e-4 0.03125,0 0,0 0.838883,-0.01136 1.65625,-0.4375 0.400327,-0.208716 0.856199,-0.528199 1.15625,-1.0625 0.30262,-0.538876 0.391735,-1.236985 0.25,-1.96875 -0.161383,-0.8332 -0.707744,-1.396292 -1.25,-1.71875 C 23.390074,37.7868 22.903251,37.62454 22.59375,37.5 22.453241,37.44346 22.362245,37.40248 22.3125,37.375 c 0.0019,-0.03491 -0.01053,-0.0951 0,-0.15625 0.02247,-0.130484 0.07156,-0.310999 0.15625,-0.53125 0.753266,-0.830124 2.378688,-1.414817 3.84375,-1.46875 0.559374,-0.02059 1.112453,0.03722 1.53125,0.125 0.03701,0.01327 0.08929,0.02664 0.125,0.03125 1.256952,0.162351 2.525807,0.690205 3.15625,1.375 0.09228,0.232339 0.136188,0.437563 0.15625,0.5625 0.0091,0.05641 0.0302,0.09379 0.03125,0.125 0.02225,-0.05506 -0.0097,0.0387 -0.3125,0.15625 -0.30061,0.116702 -0.814133,0.222888 -1.34375,0.53125 -0.549881,0.320161 -1.088571,0.916567 -1.25,1.75 -0.141735,0.731765 -0.05262,1.429874 0.25,1.96875 0.300051,0.534301 0.755923,0.853784 1.15625,1.0625 0.817369,0.426145 1.65625,0.4375 1.65625,0.4375 0.01522,3.55e-4 0.01603,3.55e-4 0.03125,0 l 10.90625,0 c 0.521258,-0.01131 0.957441,-0.447492 0.96875,-0.96875 0,0 -0.09375,-11 -0.09375,-11 3.55e-4,-0.01522 3.55e-4,-0.01603 0,-0.03125 0,0 0.01172,-0.802217 -0.40625,-1.625 -0.206636,-0.406771 -0.532203,-0.88694 -1.0625,-1.1875 -0.538769,-0.305361 -1.237604,-0.391616 -1.96875,-0.25 -0.833201,0.161383 -1.396291,0.707745 -1.71875,1.25 -0.306951,0.516177 -0.46921,1.002999 -0.59375,1.3125 -0.05911,0.146895 -0.129082,0.233427 -0.15625,0.28125 -0.03266,-0.0027 -0.07608,0.0084 -0.125,0 C 37.119516,31.10253 36.939001,31.05344 36.71875,30.96875 35.888626,30.215485 35.303937,28.590066 35.25,27.125 c -0.02065,-0.561102 0.03543,-1.072685 0.125,-1.5 0.0021,-0.02078 0.0021,-0.04172 0,-0.0625 3.55e-4,-0.01522 3.55e-4,-0.01603 0,-0.03125 0.0021,-0.01703 0.02887,-0.04407 0.03125,-0.0625 0.162722,-1.259781 0.704315,-2.490113 1.40625,-3.125 0.168571,-0.06781 0.321558,-0.123834 0.4375,-0.15625 0.133288,-0.03727 0.236036,-0.02991 0.21875,-0.03125 0.0028,0.004 0.0092,-0.03329 0.03125,0 0.04233,0.06398 0.160262,0.348024 0.28125,0.6875 0.122902,0.344844 0.270304,0.794882 0.59375,1.21875 0.330667,0.433331 0.850696,0.836934 1.53125,0.96875 1.365144,0.264415 2.419893,-0.408451 2.90625,-1.1875 0.463779,-0.742884 0.545387,-1.470617 0.5625,-1.6875 5.27e-4,-0.01041 5.27e-4,-0.02084 0,-0.03125 0.0014,-0.03041 0.0014,-0.03209 0,-0.0625 l 0,-11.03125 C 43.36369,10.509992 42.927508,10.073809 42.40625,10.0625 l -11.25,0 C 30.920504,10.00796 30.570647,9.8524011 30.4375,9.71875 30.348696,9.6296094 30.306667,9.5921592 30.28125,9.5 30.25583,9.407841 30.25943,9.2427214 30.3125,8.96875 30.34143,8.8193646 30.36952,8.7635369 30.40625,8.71875 30.44298,8.673963 30.5,8.635851 30.625,8.5625 30.830832,8.4417165 31.23763,8.3014305 31.6875,8.125 32.148533,7.9441919 32.776021,7.6306311 33.0625,6.90625 33.347216,6.1863273 33.171057,5.3971521 32.75,4.5 32.714956,4.4180756 32.680794,4.3507226 32.625,4.28125 31.590287,3.0401646 30.023223,2.4920309 28.5,2.25 c -0.0044,-0.00126 -0.01501,0.0053 -0.03125,0 -0.0097,-0.00318 -0.01988,0.0039 -0.03125,0 -0.02274,-0.00779 -0.04128,0.00808 -0.0625,0 -0.0035,-0.00135 0.0033,-0.029951 0,-0.03125 -0.01958,-0.012748 -0.04055,-0.023232 -0.0625,-0.03125 -0.0075,-0.00462 -0.02359,0.00404 -0.03125,0 0.0244,0.00339 -0.0355,0.00185 -0.03125,0 0.0014,-6.159e-4 8.57e-4,-0.03021 0,-0.03125 C 28.22983,2.14821 28.20463,2.128133 28.1875,2.125 c -0.0234,-0.0049 -0.01714,6.144e-4 -0.03125,0 -0.05991,-0.01224 -0.0681,5.147e-4 -0.0625,0 C 27.497927,2.009656 26.875911,1.9758077 26.21875,2 z"
       id="C"
       fill="#445800"
       fill-rule="evenodd"
       stroke-width="3.585" />
    <path
       d="m 26.250616,2.9642212 c -1.704368,0.062743 -3.616154,0.6339257 -4.636021,1.8572119 -1.483444,3.1607898 2.120188,1.7013921 2.54403,3.8896319 0.42384,2.18824 -2.120026,2.30925 -2.120026,2.30925 l 0,0 -10.961052,0 0,11.11874 c -0.03052,0.350931 -0.284244,2.379201 -2.2917287,1.99037 -2.1882387,-0.423841 -0.728841,-4.02397 -3.8896318,-2.540525 -1.0324081,0.860731 -1.6006884,2.352487 -1.7906323,3.823053 -0.00297,0.02297 -0.00773,0.04713 -0.010512,0.07008 -0.1083996,0.517165 -0.1633294,1.108894 -0.1401674,1.73807 0.062743,1.704368 0.6339247,3.616154 1.8572119,4.636019 3.1607897,1.483448 1.7013921,-2.120189 3.8896319,-2.544026 2.1882384,-0.423842 2.3092494,2.120025 2.3092494,2.120025 l 0.06658,10.957548 c 0,0 10.999599,-0.08761 10.999598,-0.08761 0,0 2.543865,-0.121014 2.120025,-2.309252 -0.423841,-2.188237 -4.023969,-0.728841 -2.540525,-3.88963 1.019869,-1.223286 2.92815,-1.794469 4.632517,-1.857211 0.629175,-0.02316 1.220905,0.03177 1.738069,0.140168 0.02295,0.0028 0.04712,0.0075 0.07008,0.01051 1.470565,0.189942 2.965829,0.758225 3.826557,1.79063 1.483443,3.160794 -2.120188,1.701393 -2.54403,3.889636 -0.42384,2.188237 2.120024,2.309246 2.120024,2.309246 l 10.897976,0.0035 c 0,0 -0.07008,-11.01712 -0.07008,-11.01712 0,0 -0.121014,-2.543867 -2.309251,-2.120025 -2.188243,0.423843 -0.728842,4.027469 -3.88963,2.544031 -1.223291,-1.019869 -1.794469,-2.931656 -1.857216,-4.636023 -0.02316,-0.629176 0.03177,-1.220904 0.140167,-1.738069 0.0028,-0.02295 0.0075,-0.04712 0.01051,-0.07008 0.189947,-1.470565 0.758224,-2.962324 1.790635,-3.823054 0.592645,-0.278145 1.023312,-0.378911 1.345599,-0.353921 1.396595,0.108289 0.766084,2.550077 2.544031,2.894447 2.041719,0.395461 2.27197,-1.720096 2.295231,-2.014899 l 0,-11.03464 -11.45514,0 C 30.224422,10.85414 29.040444,10.348424 29.341297,8.7951652 29.765136,6.6069254 33.365265,8.0663243 31.881822,4.9055332 31.021089,3.8731268 29.529332,3.3048461 28.058768,3.114901 28.0358,3.1119338 28.011637,3.1071703 27.988685,3.1043886 27.47152,2.995989 26.879791,2.9410592 26.250616,2.9642212 z"
       id="D"
       fill="url(#7)"
       fill-rule="evenodd"
       stroke-width="3.585" />
    <path
       d="m 26.28125,3.46875 c -1.593738,0.058671 -3.366637,0.5975714 -4.25,1.625 -0.305113,0.6778812 -0.306363,1.043756 -0.25,1.1875 0.05864,0.1495602 0.248453,0.2673059 0.59375,0.40625 0.345297,0.1389441 0.798863,0.2629764 1.25,0.53125 0.451137,0.2682736 0.898624,0.7215195 1.03125,1.40625 0.123687,0.6385809 0.02002,1.1998153 -0.21875,1.625 -0.238774,0.425185 -0.617509,0.691877 -0.96875,0.875 -0.702482,0.366247 -1.40625,0.40625 -1.40625,0.40625 a 0.49360293,0.49360293 0 0 1 -0.03125,0 l -10.46875,0 0,10.59375 a 0.49360293,0.49360293 0 0 1 0,0.03125 c -0.01792,0.206055 -0.07742,0.874077 -0.46875,1.5 C 10.702424,24.282173 9.8529304,24.850733 8.6875,24.625 8.0025544,24.492333 7.5465996,24.045942 7.28125,23.59375 7.0159004,23.141558 6.8854299,22.657825 6.75,22.3125 6.6145701,21.967175 6.4886691,21.807312 6.34375,21.75 6.2044667,21.694916 5.865492,21.694835 5.1875,22 c -0.8716761,0.747467 -1.4171513,2.101504 -1.59375,3.46875 0.011279,-0.08731 0.015968,-0.06926 0,0.0625 A 0.49360293,0.49360293 0 0 1 3.5625,25.5625 c -0.097551,0.465408 -0.1157211,1.028174 -0.09375,1.625 0.058671,1.593738 0.5975714,3.366639 1.625,4.25 0.6779917,0.305166 1.0169671,0.305084 1.15625,0.25 0.1449187,-0.05731 0.2708201,-0.217174 0.40625,-0.5625 0.1354299,-0.345326 0.2659001,-0.829058 0.53125,-1.28125 0.2653499,-0.452192 0.7213038,-0.898584 1.40625,-1.03125 0.6385807,-0.123687 1.1998152,-0.02002 1.625,0.21875 0.425185,0.238774 0.691877,0.617509 0.875,0.96875 0.366247,0.702482 0.40625,1.40625 0.40625,1.40625 a 0.49360293,0.49360293 0 0 1 0,0.03125 l 0.0625,10.4375 10.46875,-0.0625 c 0,0 0.03039,6.3e-5 0.03125,0 0.02973,-0.0022 0.547164,-0.04516 1,-0.28125 0.232989,-0.121472 0.411322,-0.286444 0.53125,-0.5 0.119928,-0.213556 0.181983,-0.481961 0.09375,-0.9375 -0.07929,-0.409389 -0.236254,-0.574578 -0.53125,-0.75 -0.294996,-0.175422 -0.705035,-0.29976 -1.125,-0.46875 -0.419965,-0.16899 -0.914332,-0.431477 -1.125,-0.96875 -0.210668,-0.537273 -0.08476,-1.184799 0.3125,-2.03125 a 0.49360293,0.49360293 0 0 1 0.0625,-0.09375 C 22.447013,34.38297 24.451662,33.816201 26.25,33.75 c 0.650576,-0.02395 1.281978,0.04154 1.84375,0.15625 0.0095,0.0019 0.02183,-0.002 0.03125,0 0.01462,0.0035 0.01853,-0.0041 0.03125,0 1.549914,0.200191 3.169524,0.785217 4.15625,1.96875 a 0.49360293,0.49360293 0 0 1 0.0625,0.09375 c 0.397413,0.846772 0.529144,1.495114 0.3125,2.03125 -0.216644,0.536136 -0.701547,0.773109 -1.125,0.9375 -0.423453,0.164391 -0.859376,0.2959 -1.15625,0.46875 -0.296874,0.17285 -0.452212,0.341937 -0.53125,0.75 -0.08823,0.455538 -0.02618,0.723944 0.09375,0.9375 0.119928,0.213556 0.298261,0.378528 0.53125,0.5 0.452836,0.236092 0.970269,0.27907 1,0.28125 l 0.03125,0 10.375,0 -0.09375,-10.46875 0,-0.03125 c -0.0019,-0.03016 -0.02088,-0.548974 -0.25,-1 -0.117934,-0.232158 -0.290373,-0.412438 -0.5,-0.53125 -0.209627,-0.118812 -0.481746,-0.182025 -0.9375,-0.09375 -0.409391,0.07929 -0.574577,0.236255 -0.75,0.53125 -0.175423,0.294995 -0.299761,0.705035 -0.46875,1.125 -0.168989,0.419965 -0.431477,0.914332 -0.96875,1.125 -0.537273,0.210668 -1.184799,0.08476 -2.03125,-0.3125 a 0.49360293,0.49360293 0 0 1 -0.09375,-0.0625 c -1.398284,-1.165763 -1.965044,-3.170415 -2.03125,-4.96875 -0.02392,-0.649799 0.04237,-1.255428 0.15625,-1.8125 0.0032,-0.02245 -0.0033,-0.01601 0,-0.03125 0.0065,-0.03048 -0.0056,-0.05095 0,-0.0625 0.200311,-1.550793 0.789723,-3.142035 1.96875,-4.125 A 0.49360293,0.49360293 0 0 1 36,21.09375 c 0.638224,-0.299535 1.146155,-0.440956 1.59375,-0.40625 0.493458,0.03826 0.90604,0.356519 1.125,0.6875 0.21896,0.330981 0.322252,0.676631 0.4375,1 0.115248,0.323369 0.221874,0.611833 0.375,0.8125 0.153126,0.200667 0.323267,0.310505 0.65625,0.375 0.857033,0.165999 1.161139,-0.10738 1.40625,-0.5 0.238308,-0.381723 0.301087,-0.877378 0.3125,-1 l 0,-0.03125 0,-10.5 -10.96875,0 A 0.49360293,0.49360293 0 0 1 30.8125,11.5 C 30.398623,11.404249 29.853149,11.229842 29.40625,10.78125 28.959351,10.332658 28.668493,9.5923265 28.84375,8.6875 28.976417,8.0025541 29.422808,7.5465998 29.875,7.28125 30.327192,7.0159002 30.810925,6.8854298 31.15625,6.75 31.501575,6.6145702 31.661437,6.4886691 31.71875,6.34375 31.773834,6.2044667 31.773915,5.865492 31.46875,5.1875 30.724348,4.3202471 29.37386,3.8024543 28,3.625 27.95632,3.61936 27.96893,3.604044 27.9375,3.59375 27.90685,3.59003 27.9292,3.56877 27.90625,3.5625 27.89735,3.56063 27.884,3.56433 27.875,3.5625 27.414666,3.469011 26.866636,3.4472 26.28125,3.46875 z"
       id="E"
       opacity="0.8"
       fill="none"
       stroke="url(#8)" />
    <path
       d="m 26.25,2.96875 c -1.704368,0.062743 -3.605133,0.6204638 -4.625,1.84375 -1.483444,3.1607898 2.107408,1.7180102 2.53125,3.90625 0.42384,2.18824 -2.125,2.3125 -2.125,2.3125 l -10.96875,0 0,11.09375 c -0.03052,0.350931 -0.273765,2.388831 -2.28125,2 -2.1882385,-0.423841 -0.7142092,-4.014695 -3.875,-2.53125 -1.032408,0.860731 -1.6225561,2.341934 -1.8125,3.8125 -0.00297,0.02297 0.00278,0.03955 0,0.0625 -0.1083996,0.517164 -0.148162,1.120824 -0.125,1.75 0.062743,1.704368 0.6204628,3.605135 1.84375,4.625 3.1607899,1.483448 1.6867602,-2.107413 3.875,-2.53125 1.724847,-0.334088 2.172057,1.126826 2.28125,1.78125 10.021715,-4.291289 21.052426,-8.710668 31.4375,-12.5625 l 0,-7.5 -11.46875,0 C 30.219221,10.865075 29.042897,10.334509 29.34375,8.78125 29.767589,6.5930103 33.358443,8.0670411 31.875,4.90625 31.014266,3.8738435 29.533064,3.3149451 28.0625,3.125 28.039533,3.1220327 28.022952,3.0965317 28,3.09375 27.482834,2.9853503 26.879175,2.945588 26.25,2.96875 z"
       id="F"
       opacity="0.6"
       fill="url(#9)"
       fill-rule="evenodd"
       stroke-width="3.585" />
  </g>
  <path
     style="fill:#ff7f2a;stroke-width:0.20338982"
     d="m 40.820339,13.046107 c -0.34905,0.554466 -1.093906,0.545631 -1.374868,1.170683 -1.223439,0.723431 -2.060819,1.951524 -3.407573,2.489937 -0.78119,0.623151 -1.638598,1.083914 -2.515361,1.523834 -2.267361,1.614757 -5.03277,2.343222 -7.567135,3.435779 -4.117512,1.337297 -8.336356,2.274821 -12.643935,2.752516 -1.13362,0.02638 -2.237148,0.241285 -3.166843,0.934719 -1.6187619,0.746762 -3.106058,-0.954861 -4.7792638,-0.56965 -0.7520433,-0.17055 -1.3744125,0.308521 -1.3240202,1.095206 -0.3712677,1.766794 -0.1192189,3.825633 0.9510064,5.302834 0.3283966,0.28788 1.0680014,-0.17838 0.7496028,0.520392 0.3616543,0.52701 0.686835,-0.557525 0.7698622,-0.825874 0.3133021,-1.743991 2.4266967,-2.591802 3.9081036,-1.699417 0.792944,0.279526 0.814449,1.249065 1.355403,1.709348 2.210563,-0.52041 4.292638,-1.648948 6.453234,-2.389646 5.545318,-2.208207 11.139268,-4.351728 16.671634,-6.560301 0.828984,-1.025003 2.131733,-1.312116 3.384533,-1.279926 1.046867,-0.428624 2.157724,-0.838981 3.144201,-1.341101 -0.0042,-2.255429 -0.0085,-4.510858 -0.01271,-6.766287 -0.299394,-0.229101 -0.396539,0.374386 -0.595869,0.496954 z"
     id="path32"
     inkscape:connector-curvature="0" />
  <path
     style="fill:#ff7f2a;stroke-width:0.20338982"
     d="m 28.252913,11.367346 c -0.768772,0.131049 -0.94694,1.186027 -1.747087,1.295816 -3.121364,2.324531 -6.914482,3.617447 -10.768985,3.988296 -1.219577,0.224046 -2.529053,0.102073 -3.6995,0.257864 -0.03065,2.309438 -0.12348,4.712611 -0.274099,6.971663 1.97206,0.44048 3.988566,-0.360155 5.974576,-0.401615 4.600646,-0.868509 9.166929,-2.150855 13.34896,-4.310744 1.250543,-0.350159 2.033275,-1.465436 3.255516,-1.844579 1.279954,-0.920032 2.498825,-2.048061 4.037208,-2.452596 0.403046,-0.806783 1.235543,-1.38145 1.634667,-2.176906 0.211739,-0.489058 -0.971266,-0.167341 -1.27953,-0.290387 -2.88687,-0.170646 -5.849186,0.188087 -8.690545,-0.272908 -0.610338,-0.206164 -1.122573,-0.741365 -1.791181,-0.763904 z"
     id="path34"
     inkscape:connector-curvature="0" />
  <path
     style="fill:#ff7f2a;stroke-width:0.20338982"
     d="m 34.126192,22.357548 c -3.377998,1.17368 -6.657295,2.661386 -10.030454,3.870952 -4.084201,1.618104 -8.27324,3.109247 -12.297539,4.791786 -0.107409,1.344207 0.200994,2.806091 -0.163665,4.087659 -0.947417,-0.01429 -0.516593,1.346582 -0.643096,1.923458 0.04835,1.860804 -0.134126,3.826837 0.09331,5.617856 3.941807,-0.01567 7.894665,0.03129 11.829581,-0.02344 0.968165,-0.51858 1.732773,-1.749617 1.031648,-2.782706 -0.651609,-0.948111 -2.642139,-0.895772 -2.557866,-2.309586 -0.01688,-1.103519 1.043541,-1.675448 1.816605,-2.225371 -0.610221,-0.285583 -1.511215,-0.149442 -0.422272,-0.65625 2.237605,-1.026327 4.859397,-0.900376 7.181409,-0.224841 1.232952,0.330079 -1.747081,0.502894 0.562897,1.185381 1.020715,0.434518 2.076766,1.768599 1.400291,2.854211 -1.036934,0.611147 -2.923611,1.155738 -2.598384,2.741393 0.256194,1.026626 1.294517,1.742367 2.358051,1.441208 3.524935,-0.06715 7.160977,0.133924 10.61679,-0.100106 -0.107849,-2.6776 0.2112,-5.409054 -0.164461,-8.059322 -0.20279,-0.282077 -0.73909,-0.108331 -0.640358,-0.647114 -0.123934,-0.267253 0.112808,-1.400847 -0.297936,-1.076139 -0.07593,2.955456 -0.0056,5.913071 -0.01311,8.869307 -3.437931,-0.110783 -6.957617,0.228117 -10.349842,-0.220869 -0.844536,-0.541527 0.364054,-1.268646 0.875134,-1.458289 1.097493,-0.346063 1.914573,-1.395926 1.618775,-2.580906 -0.01554,-1.155507 -0.940328,-1.958653 -1.655721,-2.664327 1.322528,-0.601193 2.83728,-0.819595 4.184587,-1.426907 -0.57206,-0.978332 -1.774397,-1.830198 -2.037075,-3.110037 -0.765008,-2.484027 -0.560943,-5.246127 0.484639,-7.620763 0.01228,-0.106106 -0.06458,-0.220071 -0.181938,-0.196238 z m -17.87606,14.060911 c 1.346531,0.0089 2.693062,0.01774 4.039592,0.02661 -0.242132,1.08265 -0.282411,2.428864 0.817532,3.061971 0.513117,0.622595 2.136256,0.537513 1.82018,1.623146 -0.671701,0.749751 -1.930801,0.254342 -2.805853,0.465742 -2.639339,0.06841 -5.279893,0.02889 -7.919782,0.03955 0,-1.748014 0,-3.496027 0,-5.244041 1.349444,0.009 2.698888,0.01801 4.048331,0.02701 z"
     id="path36"
     inkscape:connector-curvature="0" />
  <path
     style="fill:#ff7f2a;stroke-width:0.20338982"
     d="m 40.384004,30.655217 c -1.172961,0.368415 -1.13354,2.092441 -2.279396,2.59481 -1.007083,0.494254 -2.147021,-0.301764 -3.165651,0.310646 -0.966803,0.438682 -2.273882,0.495387 -3.022643,1.256885 0.675281,0.946398 1.601543,2.084417 1.397907,3.355932 -0.2075,1.427784 -2.074383,1.617138 -2.669094,2.754105 0.228587,0.922516 1.653917,0.445195 2.32071,0.628443 2.761041,0.01763 5.628945,0.187763 8.32071,-0.02383 -0.08167,-3.519921 0.170546,-7.092617 -0.179158,-10.584216 -0.165206,-0.216308 -0.458502,-0.31094 -0.723385,-0.29277 z"
     id="path38"
     inkscape:connector-curvature="0" />
  <path
     style="fill:#ff7f2a;stroke-width:0.20338982"
     d="m 12.204979,36.447458 c 0.07051,1.712898 -0.137345,3.541101 0.100106,5.184851 3.404933,-0.09136 6.852322,0.197757 10.233845,-0.224444 0.844646,-0.329878 0.16241,-1.252731 -0.442929,-1.392346 -1.340428,-0.480337 -2.277047,-1.877251 -1.835593,-3.30077 -0.43588,-0.840955 -2.333239,-0.134653 -3.32741,-0.367397 -1.558668,0.06761 -3.240802,-0.136497 -4.728019,0.100106 z"
     id="path40"
     inkscape:connector-curvature="0" />
  <path
     style="fill:#ff7f2a;stroke-width:0.20338982"
     d="m 5.7183528,22.724603 c -0.6962281,0.296506 -1.4368158,1.219205 -1.2799259,1.98464 0.8330263,0.32813 1.8115146,0.04855 2.6885594,0.153734 C 7.0011106,24.261716 6.5230334,22.942402 5.7183528,22.724603 Z"
     id="path42"
     inkscape:connector-curvature="0" />
  <path
     style="fill:#ff7f2a;stroke-width:0.20338982"
     d="m 26.031515,4.5204184 c -1.282953,-0.020467 -2.887826,0.3097153 -3.595869,1.4721928 0.111203,1.081893 1.613981,1.1093089 2.143141,1.9520657 1.328789,1.6465474 -0.141914,4.4698111 -2.26425,4.2624371 -3.418866,0.194536 -6.958802,-0.02739 -10.312948,0.258617 0.07196,1.435021 -0.138997,2.987231 0.100106,4.353019 5.650667,0.174796 11.432679,-1.55606 15.816737,-5.178893 0.636625,-0.163063 0.792967,-0.764288 0.521584,-1.300583 -0.404988,-1.4039945 0.455913,-2.8903493 1.844412,-3.3265356 0.49772,-0.1063021 1.356601,-0.4572702 0.732521,-1.037606 -1.271155,-1.4122876 -3.206291,-1.5663373 -4.985434,-1.454714 z"
     id="path44"
     inkscape:connector-curvature="0" />
  <path
     style="fill:#ff7f2a;stroke-width:0.20338982"
     d="m 41.194783,19.470365 c -0.967073,0.390315 -2.197653,0.680922 -2.921345,1.32124 0.957673,0.591878 1.156439,1.750368 1.649761,2.630164 0.747448,0.42318 1.549097,-0.238921 1.478152,-1.040387 8e-6,-0.929623 0.332768,-2.105805 -0.151748,-2.913797 l -0.03178,-3.97e-4 z"
     id="path46"
     inkscape:connector-curvature="0" />
  <path
     style="fill:#ff7f2a;stroke-width:0.03846154"
     d="m 4.5533416,22.393735 c -0.3648464,0.04126 -0.518333,0.444825 -0.7007211,0.711764 -0.7682687,1.377115 -1.0182942,2.994706 -0.9879766,4.550271 0.1522608,0.14479 0.4382301,0.03199 0.6434003,0.06729 0.185653,0.0045 0.4881277,0.05516 0.4495192,-0.230319 0.031755,-0.4491 0.047109,-0.900364 0.1089243,-1.346529 -0.096957,-0.146474 0.1102649,-0.128326 0.070613,-0.287635 0.020312,-0.586708 0.3540532,-1.11318 0.4117339,-1.694787 0.1986393,-0.539249 0.5926297,-1.019933 1.0878906,-1.3125 0.1036506,-0.07699 0.3702449,-0.009 0.3088191,-0.216121 -0.2860241,-0.220463 -0.6897007,-0.10902 -1.026217,-0.163912 -0.1284766,-0.0011 -0.2378184,-0.08081 -0.3659856,-0.07752 z"
     id="path48"
     inkscape:connector-curvature="0" />
  <path
     style="fill:#ff7f2a;stroke-width:0.03846154"
     d="m 10.967855,19.945718 c -0.06008,0.990525 0.0262,1.996719 -0.07834,2.979394 -0.137386,0.683235 -0.58574,1.418722 -1.3237045,1.538935 -0.552002,0.05772 -1.1960908,0.01743 -1.5800029,-0.44073 C 7.4424271,23.447849 7.408936,22.582505 6.9450183,21.95924 6.7199917,21.653184 6.3354876,21.513461 5.964299,21.573816 c -0.5884548,0.06563 -1.2332441,0.289641 -1.5690102,0.801214 0.096906,0.187225 0.3813761,0.121727 0.5624248,0.167819 0.3505783,0.0258 0.7097294,0.03282 1.0335037,0.18164 0.1439429,0.02603 0.1413786,0.251538 0.228961,0.35159 0.2880292,0.465606 0.5653277,0.916564 0.7250654,1.450468 0.1983222,0.42259 0.6122884,0.724163 1.0589954,0.843675 0.7368139,0.278212 1.6242704,0.404836 2.3241929,-0.04169 0.381376,-0.270246 0.88385,-0.390724 1.139573,-0.813778 0.207785,-0.333906 0.449781,-0.686461 0.415252,-1.097205 0.0246,-0.762452 0.122147,-1.527126 0.08302,-2.289363 -0.07843,-0.224135 -0.318067,9.06e-4 -0.477539,-0.03711 -0.256582,0.03938 -0.383943,-0.06627 -0.316531,-0.333212 -0.0088,-0.266709 0.0042,-0.535355 -0.01685,-0.801103 -0.03437,-0.0845 -0.143535,-0.09069 -0.1875,-0.01104 z"
     id="path50"
     inkscape:connector-curvature="0" />
  <path
     style="fill:#ff7f2a;stroke-width:0.03846154"
     d="m 5.9561361,22.639453 c -0.2050353,0.02423 -0.108678,0.287185 0.042218,0.323242 0.1756548,0.123054 0.2895238,-0.150816 0.1320613,-0.246319 -0.046946,-0.04368 -0.108181,-0.07968 -0.1742789,-0.07692 z"
     id="path52"
     inkscape:connector-curvature="0" />
  <path
     style="fill:#ff7f2a;stroke-width:0.03846154"
     d="m 6.7548891,24.789017 c -0.09749,0.209107 0.2260574,0.209106 0.3571214,0.266001 0.2950354,0.08898 0.2088276,-0.328644 -0.037335,-0.283428 -0.1058506,-0.0042 -0.2224131,-0.03552 -0.3197867,0.01743 z"
     id="path54"
     inkscape:connector-curvature="0" />
  <path
     style="fill:#ff7f2a;stroke-width:0.03846154"
     d="M 4.4613194,24.642984 C 4.313281,24.698693 4.2103166,24.918808 4.2748711,25.064483 4.4500697,25.147591 4.5744496,24.921426 4.7389636,24.885922 4.8727188,24.706766 4.5785693,24.652187 4.4613194,24.642984 Z"
     id="path56"
     inkscape:connector-curvature="0" />
  <path
     style="fill:#ff7f2a;stroke-width:0.03846154"
     d="m 3.8159618,27.794276 c -0.2729379,0.130216 -0.5774691,0.09437 -0.866887,0.141827 -0.1838378,0.102032 -0.0325,0.35875 -0.038728,0.524377 0.2102096,1.347651 0.6410533,2.753093 1.6584695,3.716233 0.4821623,0.28548 1.0713736,0.140021 1.5920974,0.292969 0.3365925,0.08155 0.7092242,-0.0775 0.8408953,-0.407452 0.3693789,-0.676391 0.460225,-1.563873 1.1366439,-2.032002 0.6778777,-0.424275 1.6952592,-0.356646 2.2014721,0.307242 0.287056,0.334786 0.393879,0.770901 0.537861,1.173903 0.146809,0.144602 0.349819,-0.06022 0.510354,-0.09148 0.198373,-0.09212 0.579032,-0.1984 0.482735,-0.491227 -0.224017,-0.335704 -0.45034,-0.674422 -0.63287,-1.037546 C 11.069347,29.558192 10.832384,29.252286 10.478747,29.104222 9.7998268,28.704093 8.9570803,28.625415 8.2146238,28.887278 7.437788,29.127233 6.7730103,29.727213 6.5258016,30.511219 6.3661294,30.924377 6.3189052,31.421848 5.9813014,31.740415 5.8488946,31.798682 5.853924,31.619416 5.8142341,31.548558 5.616014,31.409597 5.3636948,31.354913 5.1819474,31.183023 4.8992599,31.031703 4.8100692,30.676819 4.6458897,30.421229 4.229021,29.646064 4.0873553,28.769866 3.9561361,27.914769 3.9435511,27.847765 3.893394,27.777996 3.8159618,27.794276 Z"
     id="path58"
     inkscape:connector-curvature="0" />
  <path
     style="fill:#ff7f2a;stroke-width:0.03846154"
     d="m 3.3298591,27.797206 c -0.282093,0.0126 -0.065846,0.363054 0.1143329,0.193209 C 3.529996,27.905595 3.4328,27.782918 3.3298591,27.797206 Z"
     id="path60"
     inkscape:connector-curvature="0" />
  <path
     style="fill:#ff7f2a;stroke-width:0.03846154"
     d="m 3.513528,27.629237 c -0.2016622,0.04013 -0.4897568,-0.06898 -0.6370944,0.111929 -0.074573,0.144155 0.04973,0.342891 0.2164213,0.260817 0.129695,-0.0078 0.2207769,-0.20158 0.3467548,-0.07632 0.1732258,0.05269 0.373081,-0.0187 0.5178786,-0.113807 C 4.072443,27.545485 3.633308,27.652802 3.513528,27.629237 Z"
     id="path62"
     inkscape:connector-curvature="0" />
  <path
     style="fill:#ff7f2a;stroke-width:0.03846154"
     d="m 5.0869955,32.272566 c -0.1916497,0.03354 -0.069206,0.249677 0.072416,0.246319 0.4069487,0.140493 0.8830005,0.28289 1.2946965,0.09721 0.1045282,-0.199844 -0.2019164,-0.22307 -0.3291016,-0.24662 -0.3431053,-0.05512 -0.6907408,-0.0872 -1.0380108,-0.0969 z"
     id="path64"
     inkscape:connector-curvature="0" />
  <path
     style="fill:#ff7f2a;stroke-width:0.03846154"
     d="m 5.3332395,31.243945 c -0.095021,0.203386 0.2267778,0.243104 0.3529146,0.333985 0.1973388,0.115143 0.2927229,-0.189664 0.1485878,-0.297326 -0.1405278,-0.07598 -0.3554504,-0.07774 -0.5015024,-0.03666 z"
     id="path66"
     inkscape:connector-curvature="0" />
  <path
     style="fill:#ff7f2a;stroke-width:0.03846154"
     d="m 20.421581,7.3236478 c -0.05857,0.1982869 0.16347,0.3666204 0.275992,0.51247 0.571298,0.6365397 1.46806,0.7456805 2.166992,1.1807392 0.286627,0.1914922 0.283009,0.6416743 0.122671,0.9088792 -0.27433,0.2983488 -0.70571,0.3959938 -1.082106,0.4819708 -3.694562,0 -7.389123,0 -11.083684,0 -0.387891,0.13569 -0.812378,0.442149 -0.79869,0.900814 -0.083625,1.670318 -0.031646,3.344631 -0.047211,5.016554 -0.011612,2.081697 0.02568,4.174542 -0.0297,6.249549 C 9.91726,22.909185 9.7814,23.271811 9.509397,23.481475 9.1795891,23.57366 8.6990003,23.52533 8.5693422,23.149369 8.208693,22.39397 8.0367957,21.467485 7.3006372,20.965475 6.5971934,20.45388 5.6515408,20.560558 4.8871705,20.865839 c -0.55154,0.182323 -1.0220764,0.546938 -1.3629755,1.014224 -0.9899489,1.212685 -1.4372408,2.780718 -1.5601451,4.31629 -0.2259314,1.859195 0.054571,3.81486 0.9681229,5.464585 0.3321222,0.562709 0.7641741,1.081341 1.2885367,1.473407 0.781991,0.409864 1.7444839,0.709628 2.60637,0.36854 0.6852354,-0.267895 1.0807435,-0.944981 1.3205393,-1.604271 0.1724665,-0.360988 0.2467046,-0.798055 0.5604703,-1.071661 0.3302143,-0.143755 0.8044377,-0.07582 0.9546274,0.295298 0.1741134,0.346581 0.2954738,0.721912 0.2515134,1.113871 0.021028,2.809484 0.032943,5.619115 0.061362,8.428496 0.1120061,0.199244 0.4245241,0.05216 0.6192161,0.0969 0.197158,0.0023 0.553914,0.06664 0.465893,-0.253454 0.01412,-2.972805 0.06752,-5.947695 -0.05236,-8.918946 -0.193236,-0.514275 -0.351378,-1.086571 -0.7657,-1.478441 -0.7651023,-0.71163 -2.1655465,-0.514149 -2.6629365,0.421049 -0.3307397,0.543606 -0.4232477,1.215744 -0.8296273,1.713416 -0.1465354,0.09777 -0.2865031,0.201079 -0.4172927,0.319336 -0.4894339,0.08918 -1.0352672,-0.0023 -1.42811,-0.321514 C 4.4211777,32.059501 4.1615631,31.575743 3.890544,31.16767 3.2810056,30.11421 2.9880973,28.894682 2.9492251,27.685652 c -0.028636,-1.67576 0.2593268,-3.412375 1.1720553,-4.847311 0.3092747,-0.397078 0.6375891,-0.829715 1.1309795,-1.002749 0.4491437,-0.152422 0.9974692,-0.312973 1.4217246,-0.01427 0.5003896,0.41845 0.583985,1.117148 0.8732723,1.669922 0.2398858,0.527982 0.7046704,1.045086 1.32805,1.045673 0.4295658,0.02057 0.9085323,0.06723 1.2641982,-0.227614 0.548292,-0.412483 0.872259,-1.098793 0.851679,-1.784349 0.112168,-3.064634 0.07769,-6.132506 0.101681,-9.198658 0.0022,-0.597987 0.0045,-1.195974 0.0067,-1.793961 3.73904,-0.01 7.479016,-0.0079 11.217472,-0.02539 0.609053,-0.160154 1.229638,-0.410874 1.6244,-0.926908 C 24.303331,10.1442 24.261439,9.5247834 24.17744,9.0005559 23.997109,8.2687654 23.269857,7.8734491 22.611565,7.6429699 22.208846,7.5207705 21.841053,7.2481068 21.401749,7.2935246 21.077715,7.3096037 20.734036,7.252528 20.421581,7.3236478 Z"
     id="path68"
     inkscape:connector-curvature="0" />
  <path
     style="fill:#ff7f2a;stroke-width:0.03846154"
     d="m 11.055595,14.588447 c -0.07481,0.521085 -0.04,1.066843 -0.06438,1.598031 -0.0039,1.219788 -0.04785,2.442232 0.0136,3.660607 0.05981,0.148668 0.101655,0.301152 0.08492,0.467987 0.03464,0.258851 -0.07071,0.571765 0.09176,0.795911 0.239473,0.128039 0.578279,0.07086 0.782076,-0.102389 0.106721,-0.266483 0.04094,-0.579866 0.07737,-0.86296 0.0525,-1.822484 0.110112,-3.648518 -1.46e-4,-5.470048 -0.104445,-0.190168 -0.396556,-0.06324 -0.581328,-0.107676 -0.132806,0.01034 -0.280709,-0.03957 -0.403874,0.02054 z"
     id="path70"
     inkscape:connector-curvature="0" />
  <path
     style="fill:#ff7f2a;stroke-width:0.03846154"
     d="m 12.329859,24.374129 c -0.282093,0.0126 -0.06585,0.363054 0.114333,0.193209 0.0858,-0.08482 -0.01139,-0.207497 -0.114333,-0.193209 z"
     id="path72"
     inkscape:connector-curvature="0" />
  <path
     style="fill:#ff7f2a;stroke-width:0.03846154"
     d="m 22.348865,5.7611896 c -0.226515,0.082996 -0.465704,0.1019809 -0.702374,0.1253756 -0.105874,0.044697 -0.05895,0.2008181 -0.211614,0.1702974 -0.0851,-0.018234 -0.219355,-0.09983 -0.250901,0.047176 -0.117961,0.436011 -0.02229,0.9621569 0.380709,1.2201022 0.24813,0.1531531 0.553596,0.1906496 0.816119,0.3225844 0.551201,0.2169685 1.152706,0.4279404 1.50224,0.9418387 0.29529,0.4285542 0.294083,0.9983349 0.203801,1.4915871 -0.21175,0.75039 -1.008725,1.095999 -1.683897,1.33447 -3.760493,0.02578 -7.526516,0.02131 -11.289135,0.03542 -0.206354,0.112523 -0.05182,0.439261 -0.09976,0.638446 0.01016,0.828359 -0.0203,1.665094 0.01522,2.488223 0.156512,0.141754 0.442682,0.03882 0.649393,0.07968 0.188246,0.03551 0.422473,0.01391 0.391204,-0.236775 0.03899,-0.627176 0.02216,-1.256289 0.02855,-1.884315 3.549985,-0.250308 7.114057,-0.07323 10.666992,-0.264197 1.123918,-0.08094 2.011527,-1.051425 2.293795,-2.096905 0.258235,-0.8602334 0.04209,-1.8412904 -0.58729,-2.4891828 C 24.039724,7.2587492 23.450677,7.0525713 22.957864,6.713338 22.765436,6.5843191 22.485909,6.5696159 22.334141,6.3941523 c -0.01473,-0.200596 0.187012,-0.4044506 0.102858,-0.5900409 -0.01769,-0.034946 -0.05103,-0.048132 -0.08813,-0.042922 z"
     id="path74"
     inkscape:connector-curvature="0" />
  <path
     style="fill:#ff7f2a;stroke-width:0.03846154"
     d="m 31.071714,4.5667785 c -0.11199,0.05298 -0.0314,0.2072017 -0.200346,0.14686 -0.111348,-0.020869 -0.272097,0.053654 -0.2189,0.1884014 -0.321634,0.025711 -0.658894,-0.036082 -0.969727,0.036208 -0.0817,0.2282688 0.292793,0.2483969 0.419321,0.3684645 0.428229,0.231774 0.868583,0.5489918 1.029898,1.0268179 0.01127,0.3125612 -0.375805,0.4231909 -0.611763,0.5153035 -0.913659,0.227424 -1.727025,0.8769606 -2.063868,1.7682002 -0.225401,0.48487 -0.208001,1.0357677 -0.146785,1.554162 0.07555,0.26471 0.155772,0.528934 0.207482,0.798001 0.177575,0.418002 0.49464,0.769328 0.910232,0.95951 0.545994,0.365781 1.227177,0.351947 1.854082,0.436709 1.379841,0.11094 2.766894,0.06162 4.149898,0.08174 0.708977,-0.01049 1.42466,0.02715 2.129488,-0.01318 0.280629,-0.122099 0.582715,-0.164518 0.881481,-0.199155 0.11301,-0.03944 0.107505,-0.218001 0.265549,-0.16594 0.161492,0.0024 0.364691,0.01352 0.43074,-0.164063 0.320007,-0.08556 0.676292,0.03956 0.986553,-0.07963 0.07962,-0.05796 0.05057,-0.199478 0.19073,-0.142728 0.287675,-0.03196 0.616251,0.06647 0.880409,-0.07249 0.135564,-0.172762 -0.129427,-0.239435 -0.257437,-0.218524 -3.028332,-0.04845 -6.057612,-0.01344 -9.086313,-0.02434 -0.446638,-0.01373 -0.909446,0.06506 -1.325871,-0.137245 -0.657602,-0.222728 -1.199972,-0.832998 -1.181641,-1.5548373 -0.0026,-0.5283731 0.198627,-1.0789938 0.653846,-1.3807843 0.625755,-0.4553654 1.491413,-0.4847188 2.047401,-1.0463491 0.410383,-0.4819458 0.21259,-1.1632012 0.0027,-1.6869488 -0.150357,-0.4223436 -0.532997,-0.7015851 -0.865842,-0.9762123 -0.03314,-0.019235 -0.07345,-0.030703 -0.111328,-0.017954 z"
     id="path76"
     inkscape:connector-curvature="0" />
  <path
     style="fill:#ff7f2a;stroke-width:0.03846154"
     d="M 26.354691,3.29582 C 24.950673,3.331418 23.518133,3.6713364 22.333808,4.4477881 21.87892,4.754296 21.43567,5.1467896 21.298502,5.7012437 c -0.0758,0.1467342 -0.116512,0.4112001 0.110802,0.436899 0.178933,0.040601 0.224127,-0.2049728 0.404147,-0.1840445 0.283159,-0.078776 0.625967,-0.025277 0.835637,-0.2732872 0.832741,-0.7031121 1.894,-1.0043877 2.950871,-1.1617338 0.644212,-0.043514 1.30966,-0.07751 1.958724,0.00833 0.667089,0.1541979 1.339187,0.2627029 1.987565,0.4823562 0.236794,0.037671 0.477677,-0.047121 0.719725,-0.019439 0.15891,-0.010294 0.413041,0.038148 0.468751,-0.1574692 0.132504,-0.040648 0.414539,-0.037593 0.344352,-0.2578876 C 30.891438,4.3111261 30.535451,4.2344001 30.263439,4.0807839 29.616719,3.7801279 28.919769,3.5803948 28.214818,3.4837707 28.074886,3.5040637 27.92312,3.3816963 27.766366,3.3865195 27.300052,3.31347 26.826148,3.2937566 26.354691,3.29582 Z m 1.131987,0.8329327 c -0.02495,0.2261932 -0.265503,5.098e-4 0,0 z"
     id="path78"
     inkscape:connector-curvature="0" />
  <path
     style="fill:#ff7f2a;stroke-width:0.03846154"
     d="m 41.625199,11.367485 c -0.175861,0.0099 -0.448423,-0.04437 -0.513822,0.172851 -0.313306,0.139972 -0.702031,-0.04397 -0.995417,0.143254 -0.149268,0.17013 -0.425398,0.06698 -0.623723,0.112981 -0.210512,-0.0081 -0.410041,0.0521 -0.580755,0.170072 -0.165583,0.02833 -0.372496,-0.01016 -0.476637,0.156701 -0.191039,0.09164 -0.426672,0.04414 -0.607873,0.150766 -0.05327,0.231324 0.275863,0.161488 0.42363,0.191671 1.013209,0.04654 2.037572,0.0398 3.04467,0.08079 0.03117,1.678542 0.0244,3.357532 0.03493,5.036283 0.07398,0.181677 0.333265,0.0786 0.494066,0.09157 0.244385,-0.03314 0.620567,-0.118387 0.60329,-0.433594 0.05049,-1.923773 0.01177,-3.8493 0.02411,-5.773738 -0.112173,-0.206696 -0.43929,-0.05202 -0.638447,-0.09999 -0.06268,4.3e-5 -0.12535,2.74e-4 -0.188026,3.76e-4 z"
     id="path80"
     inkscape:connector-curvature="0" />
  <path
     style="fill:#ff7f2a;stroke-width:0.03846154"
     d="m 42.311197,17.418491 c -0.278579,0.166516 -0.60916,0.161608 -0.913182,0.206526 -0.132953,0.165486 -0.0307,0.44774 -0.0694,0.657417 0.0048,0.531392 -0.04746,1.070619 0.0064,1.597896 0.114943,0.206589 0.391379,0.08158 0.496019,-0.06761 0.194148,-0.06208 0.46397,0.06709 0.607571,-0.08194 0.03045,-0.735297 0.0043,-1.481416 0.01307,-2.220865 -0.008,-0.06991 -0.07367,-0.116299 -0.140475,-0.09142 z"
     id="path82"
     inkscape:connector-curvature="0" />
  <path
     style="fill:#ff7f2a;stroke-width:0.03846154"
     d="m 40.427183,12.444408 c -0.16727,0.01242 -0.481798,-0.05349 -0.492113,0.196139 -0.42635,0.788098 -1.155782,1.359297 -1.609751,2.128455 -0.345902,0.159549 -0.730871,0.24676 -1.064453,0.443885 -1.07753,0.559634 -2.001407,1.357858 -3.000826,2.036884 -1.138322,0.441866 -1.983915,1.406836 -3.134784,1.825381 -1.633744,0.782067 -3.282759,1.532024 -4.995882,2.120044 -2.67878,0.927941 -5.431383,1.649735 -8.220512,2.147933 -0.772037,0.10314 -1.565746,0.161815 -2.341287,0.300476 -1.106892,0.199793 -2.226341,0.314783 -3.348626,0.228462 -0.183873,-0.0036 -0.478439,-0.177935 -0.538258,0.09371 -0.09984,0.254212 -0.307606,0.456825 -0.395636,0.711874 0.05082,0.224667 0.324447,0.03314 0.462215,0.02922 0.19213,-0.05717 0.450994,-0.07155 0.567683,-0.242564 0.09978,0.02056 0.178574,0.121148 0.303185,0.08376 1.62996,-0.107601 3.246315,-0.372694 4.854655,-0.651198 2.948018,-0.553691 5.879577,-1.246341 8.71085,-2.245587 1.602071,-0.63422 3.228956,-1.208862 4.804086,-1.90933 0.935107,-0.404898 1.813853,-0.922342 2.670448,-1.470703 0.781956,-0.421003 1.564647,-0.845309 2.282602,-1.37147 0.503244,-0.304983 1.041775,-0.557746 1.482777,-0.956619 0.679867,-0.560937 1.33176,-1.153247 2.048453,-1.663151 0.164131,-0.198715 0.335021,-0.401266 0.567103,-0.530695 0.51311,-0.272746 1.002558,-0.67825 1.213091,-1.228731 -0.132044,-0.166273 -0.407409,-0.03467 -0.596355,-0.07656 -0.07622,-7.4e-5 -0.152444,2.58e-4 -0.228665,3.76e-4 z"
     id="path84"
     inkscape:connector-curvature="0" />
  <path
     style="fill:#ff7f2a;stroke-width:0.03846154"
     d="m 42.030999,19.714089 c -0.23102,-0.03191 -0.37558,0.173441 -0.584285,0.217623 -0.15259,0.123385 0.0082,0.342208 -0.04124,0.50278 0.01489,0.719546 -0.07212,1.428259 -0.09788,2.146935 -0.04298,0.320984 -0.225862,0.643373 -0.495868,0.823242 -0.252608,0.04966 -0.561398,0.102506 -0.792443,-0.03854 -0.313139,-0.455051 -0.446599,-1.00839 -0.71917,-1.490578 -0.292073,-0.577554 -0.744422,-1.184937 -1.419802,-1.308775 -0.393089,0.05433 -0.752213,0.268552 -1.130072,0.387021 -0.563909,0.242749 -1.175493,0.391124 -1.702636,0.711236 -0.700527,0.54989 -1.047872,1.416027 -1.317533,2.238206 -0.255164,0.88879 -0.412493,1.812091 -0.436673,2.736553 0.01186,0.224286 0.270652,0.114005 0.408333,0.122267 0.197384,-0.03663 0.461499,0.07315 0.611111,-0.06852 0.233865,-1.420569 0.443578,-2.953843 1.381172,-4.107159 0.299374,-0.394871 0.705948,-0.722281 1.202143,-0.81987 0.396023,-0.12367 0.919739,-0.162306 1.19682,0.21981 0.524998,0.680186 0.531522,1.680304 1.228741,2.240535 0.478095,0.380046 1.13342,0.400386 1.71259,0.3282 0.545834,-0.159985 0.971798,-0.592676 1.178476,-1.115745 0.308481,-0.630648 0.185306,-1.359736 0.227783,-2.036137 -0.0045,-0.540498 0.03122,-1.088923 0.0011,-1.624425 -0.0634,-0.124749 -0.292626,-0.04345 -0.410687,-0.06466 z"
     id="path86"
     inkscape:connector-curvature="0" />
  <path
     style="fill:#ff7f2a;stroke-width:0.03846154"
     d="m 34.31946,28.683215 c -0.26148,0.06113 -0.507303,0.191348 -0.779672,0.200646 -0.191946,0.127719 0.0065,0.386608 0.0064,0.564345 0.167495,0.818432 0.439146,1.636983 0.987796,2.28381 0.394121,0.48079 0.778988,0.97208 1.191531,1.43625 0.455738,0.319259 1.053261,0.308431 1.587875,0.317046 0.602991,0.02507 1.207404,-0.259675 1.538628,-0.770021 0.39931,-0.59679 0.692926,-1.256182 1.097581,-1.848633 0.196465,-0.16797 0.499664,-0.158464 0.738807,-0.118915 0.205634,0.101025 0.385292,0.262824 0.397404,0.50675 0.130333,0.481258 0.07,0.976136 0.174561,1.461775 0.158557,0.207848 0.07635,0.497615 0.11797,0.742509 0.04691,0.188743 -0.04984,0.435826 0.07577,0.595381 0.259102,0.101464 0.55504,0.02656 0.826848,0.05138 0.207192,-0.112725 0.04776,-0.440057 0.09344,-0.639609 -0.03339,-0.754623 0.03482,-1.519742 -0.08593,-2.267468 -0.177013,-0.720176 -0.655078,-1.460733 -1.425406,-1.623648 -0.552118,-0.103533 -1.174444,-0.0091 -1.625901,0.338943 -0.641888,0.56948 -0.727645,1.484322 -1.160232,2.182316 -0.248934,0.406525 -0.78708,0.43996 -1.200181,0.307713 -0.391588,-0.101917 -0.780913,-0.2459 -1.038703,-0.579247 -0.77319,-0.815756 -1.150301,-1.913752 -1.379655,-2.987705 -0.01433,-0.07147 -0.0496,-0.161481 -0.138973,-0.153621 z"
     id="path88"
     inkscape:connector-curvature="0" />
  <path
     style="fill:#ff7f2a;stroke-width:0.03846154"
     d="m 33.30654,26.706126 c -0.05003,0.473559 0.01202,0.968202 0.03038,1.449096 0.03125,0.258865 0.0218,0.539499 0.124814,0.778143 0.303313,0.05756 0.616695,-0.08285 0.891825,-0.188581 0.09072,-0.180764 -0.0026,-0.427589 0.01827,-0.632985 -0.02668,-0.457054 -0.01112,-0.9242 -0.06245,-1.375186 -0.152178,-0.134112 -0.422761,-0.02946 -0.622204,-0.06181 -0.124894,0.01466 -0.266845,-0.03336 -0.380634,0.03133 z"
     id="path90"
     inkscape:connector-curvature="0" />
  <path
     style="fill:#ff7f2a;stroke-width:0.03846154"
     d="m 26.285806,33.849756 c -0.924452,-0.03005 -1.84637,0.115538 -2.722334,0.40985 -0.456601,0.171376 -0.957002,0.305788 -1.331827,0.630264 -0.134022,0.194143 0.158428,0.288949 0.302509,0.313252 0.251837,0.042 0.482917,0.159143 0.730844,0.189303 0.943829,-0.357066 1.942751,-0.613759 2.951376,-0.633497 1.127921,-0.03658 2.257522,0.161361 3.340165,0.467105 0.165158,-0.0272 0.22854,-0.243365 0.40017,-0.293518 0.146768,-0.09045 0.472335,-0.184909 0.366357,-0.414414 -0.227945,-0.213067 -0.580495,-0.213045 -0.865084,-0.311975 -0.929748,-0.230448 -1.881837,-0.395619 -2.843298,-0.356084 -0.109625,-5.8e-4 -0.219251,-2.71e-4 -0.328878,-2.86e-4 z"
     id="path92"
     inkscape:connector-curvature="0" />
  <path
     style="fill:#ff7f2a;stroke-width:0.03846154"
     d="m 42.394355,18.667665 c -0.05769,0.488459 -0.0082,0.998091 -0.03168,1.49481 -0.02817,0.926304 0.01814,1.858421 -0.08529,2.778327 -0.141145,0.671587 -0.588293,1.369945 -1.298002,1.522085 -0.603873,0.06228 -1.319634,0.04145 -1.751127,-0.452524 -0.584291,-0.633656 -0.594896,-1.612367 -1.216571,-2.218449 -0.44573,-0.353899 -1.065267,-0.148671 -1.53873,0.03326 -0.632904,0.308936 -1.042775,0.933902 -1.370675,1.534047 -0.508169,1.009626 -0.677598,2.145116 -0.854042,3.248798 -0.009,0.757112 0.0037,1.521685 0.121845,2.270508 0.257445,1.045248 0.604969,2.1134 1.341363,2.928946 0.369819,0.469632 0.97979,0.688808 1.558652,0.740075 0.410482,0.03943 0.820393,-0.192814 0.975586,-0.579628 0.349642,-0.669484 0.49329,-1.484756 1.082107,-2.003455 0.747472,-0.546551 1.937067,-0.443274 2.470296,0.357838 0.54533,0.749665 0.465441,1.703998 0.490716,2.579361 0.01647,0.499263 -0.02013,0.995597 -0.05107,1.491198 -0.02186,2.773513 0.01747,5.547097 0.04904,8.320401 -3.554459,-0.0096 -7.114672,0.01959 -10.66564,-0.02043 -0.78406,0.0061 -1.662555,-0.304543 -2.069336,-1.019005 -0.303639,-0.626248 -0.193393,-1.451762 0.290941,-1.954778 0.663616,-0.485995 1.452059,-0.777245 2.153089,-1.200862 0.240001,-0.368219 0.244635,-0.839819 0.167223,-1.258798 -0.316621,-0.853882 -1.023271,-1.570225 -1.906025,-1.827224 -0.224912,-0.07002 -0.420967,-0.203535 -0.625976,-0.306716 -0.643793,-0.104137 -1.280509,-0.307838 -1.936824,-0.374248 -1.398885,-0.199088 -2.831391,-0.01149 -4.161258,0.450966 -0.287955,0.06909 -0.577897,0.139492 -0.811264,0.335253 -0.582204,0.409273 -1.215866,0.885316 -1.376487,1.622584 -0.16105,0.5666 0.05498,1.237158 0.586614,1.527044 0.528746,0.352533 1.159663,0.526374 1.670898,0.904297 0.514487,0.415972 0.62568,1.14889 0.444036,1.757286 -0.141661,0.554533 -0.660325,0.892142 -1.127705,1.15595 -0.493295,0.1415 -1.017815,0.06218 -1.525377,0.101016 -3.413714,0.05915 -6.827924,0.08135 -10.241975,0.1121 -0.04976,-0.659964 -0.07553,-1.323563 -0.0998,-1.978039 -0.155468,-0.1409 -0.438939,-0.02983 -0.644638,-0.06485 -0.221103,-0.03044 -0.5276888,-0.01936 -0.4270422,0.293335 0.02942,0.725817 -0.031133,1.460368 0.066239,2.180974 0.161746,0.365312 0.533898,0.691572 0.956177,0.656516 2.873803,0.0377 5.748322,-5.67e-4 8.622313,-0.01275 0.974309,-0.0288 1.95452,0.02788 2.92459,-0.08059 0.91079,-0.145716 1.815596,-0.600283 2.331205,-1.388146 0.273496,-0.418548 0.395965,-0.918251 0.355893,-1.415864 0.02668,-0.451033 -0.02729,-0.908852 -0.243062,-1.312351 -0.381066,-0.861646 -1.277423,-1.311068 -2.105919,-1.643266 -0.153941,-0.103818 -0.458894,-0.095 -0.50586,-0.277557 0.003,-0.329705 0.155236,-0.649631 0.445313,-0.818585 1.126346,-0.834308 2.547425,-1.160755 3.922387,-1.13271 0.944827,0.05411 1.882631,0.228453 2.769394,0.556613 0.559067,0.230177 1.1523,0.504913 1.520959,1.001878 0.0516,0.167363 0.146767,0.355918 0.117338,0.528471 -0.538256,0.269268 -1.149832,0.380612 -1.65948,0.715595 -0.817996,0.501042 -1.300397,1.465837 -1.25879,2.419095 -0.04767,0.853896 0.379232,1.70035 1.084182,2.180994 0.503995,0.354785 1.100563,0.580278 1.701425,0.689423 3.617485,-0.0028 7.235186,0.03482 10.85254,0.0039 0.361901,-0.03805 0.779179,0.03936 1.097656,-0.172926 0.170364,-0.168732 0.386498,-0.330265 0.387394,-0.598258 0.09437,-1.246843 0.02539,-2.500205 0.03331,-3.749546 -0.02932,-2.642462 -0.02703,-5.285971 -0.101593,-7.927512 -0.132328,-1.032344 -0.667414,-2.084902 -1.627103,-2.568585 -0.547962,-0.302824 -1.196436,-0.222007 -1.796124,-0.205529 -0.897563,0.136162 -1.617985,0.822464 -2.011869,1.612155 -0.210165,0.397685 -0.342974,0.837777 -0.561974,1.224609 -0.326689,0.02313 -0.636192,-0.138957 -0.822316,-0.409449 -0.649473,-0.828228 -0.972784,-1.870814 -1.128405,-2.89922 -0.0572,-0.847713 -0.04891,-1.702027 0.158396,-2.529339 0.183894,-0.987558 0.56486,-1.978151 1.26423,-2.716304 0.180286,-0.132906 0.424989,-0.191567 0.640625,-0.21935 0.344428,0.714829 0.504502,1.567663 1.117001,2.126474 0.572129,0.622073 1.452232,0.8565 2.274601,0.765878 1.115906,-0.08849 2.06128,-0.947536 2.400419,-1.992646 0.300788,-0.772595 0.178141,-1.621183 0.211504,-2.42983 -0.0089,-0.808843 0.0202,-1.625821 -0.01484,-2.429404 -0.16082,-0.141966 -0.451141,-0.02789 -0.661691,-0.06466 -0.113193,0.01102 -0.239179,-0.02761 -0.341947,0.03132 z"
     id="path94"
     inkscape:connector-curvature="0" />
  <path
     style="fill:#ff7f2a;stroke-width:0.03846154"
     d="m 9.9452114,18.667665 c -0.068746,0.563138 -0.024791,1.149038 -0.049851,1.721 -0.032628,0.829932 0.024134,1.66616 -0.098436,2.488285 -0.081078,0.235507 -0.2088358,0.585273 -0.5196815,0.547326 C 9.0106506,23.457966 8.7050206,23.348106 8.6314783,23.063218 8.2669986,22.307062 8.0688679,21.388804 7.3311794,20.889645 6.5456244,20.339885 5.500485,20.502268 4.6742532,20.865155 3.595508,21.338471 2.9709606,22.422974 2.5073361,23.450566 2.363178,23.774445 2.2415715,24.111088 2.2901637,24.471675 c 0.00481,1.994636 -0.00962,3.991115 0.00721,5.984601 0.4071627,1.060985 0.980932,2.148594 1.9642428,2.777644 0.7817647,0.42844 1.757363,0.666246 2.6166618,0.331656 0.7509,-0.344425 1.1717335,-1.11482 1.43962,-1.858281 0.1415992,-0.290314 0.2166965,-0.687586 0.5335619,-0.83921 0.2974112,-0.08479 0.6475104,0.04218 0.7554089,0.345928 0.2922288,0.486041 0.1754792,1.063555 0.2145623,1.600507 0.035814,2.649031 0.033565,5.304614 0.085092,7.949598 -0.022828,0.795112 0.00295,1.596673 0.034672,2.389479 0.1862926,0.35436 0.4941586,0.697484 0.9252896,0.708778 1.467082,0.07378 2.938303,0.03147 4.406999,0.03969 2.417191,-0.02024 4.835993,-0.0084 7.251654,-0.100758 1.094222,-0.173303 2.232123,-0.791506 2.640325,-1.876803 0.267738,-0.803573 0.23281,-1.73401 -0.163386,-2.490986 -0.481131,-0.877581 -1.447589,-1.3161 -2.341121,-1.654221 -0.177421,-0.01376 -0.246423,-0.193871 -0.157978,-0.337365 0.125545,-0.471912 0.612917,-0.669595 0.991388,-0.903599 1.417299,-0.757487 3.1146,-0.884129 4.668317,-0.546597 0.878042,0.195081 1.792981,0.449229 2.508264,1.022912 0.216662,0.190659 0.407053,0.456005 0.388446,0.758489 -0.819938,0.317022 -1.749283,0.571353 -2.297551,1.315054 -0.572056,0.711538 -0.707471,1.680842 -0.542894,2.558744 0.264816,1.130452 1.32643,1.902892 2.410722,2.163224 0.661252,0.157619 1.351367,0.07023 2.024675,0.09932 3.268077,-0.0094 6.536676,0.0091 9.804356,-0.04532 0.413519,0.04651 0.771042,-0.266306 0.947446,-0.613257 0.102416,-0.577758 0.03698,-1.174554 0.05916,-1.759465 -0.01338,-3.320622 0.01398,-6.642875 -0.103331,-9.961914 -0.02882,-0.999558 -0.525831,-1.991425 -1.3264,-2.595253 -0.442077,-0.341303 -1.008111,-0.472947 -1.559418,-0.430149 -0.554273,-0.01988 -1.134427,0.05984 -1.59082,0.399651 -0.877223,0.529616 -1.194947,1.561612 -1.638597,2.422776 -0.06542,0.0876 -0.218173,-0.03106 -0.311373,-0.04545 -0.425532,-0.190656 -0.621915,-0.658834 -0.850361,-1.036358 -0.357572,-0.672516 -0.543089,-1.425164 -0.655123,-2.173828 -0.0242,-0.888862 -0.03458,-1.806459 0.20397,-2.671568 0.206476,-0.880768 0.533019,-1.769096 1.184476,-2.427741 0.142729,-0.106759 0.327438,-0.204928 0.504057,-0.20012 0.272654,0.410234 0.37937,0.913175 0.617638,1.345703 0.39824,0.78367 1.183237,1.400874 2.068059,1.497897 0.544552,0.01004 1.120011,0.06811 1.620792,-0.195463 0.912404,-0.398664 1.559004,-1.285403 1.774492,-2.243239 0.121035,-1.067324 0.05419,-2.146162 0.08348,-3.218205 -0.01753,-0.429366 0.04679,-0.875042 -0.02278,-1.29404 -0.538066,-0.06428 -1.099116,-0.0097 -1.646112,-0.02779 -10.600008,0 -21.200018,0 -31.800028,0 -0.024239,0.01044 -0.048478,0.02088 -0.072717,0.03132 z m 24.4550026,3.573693 c -0.08676,0.21534 -0.225621,0.02269 0,0 z M 7.3739222,24.981442 c 0.068043,0.09834 -0.3166639,0.192757 0,0 z m 12.2040268,2.942909 c 0.153152,0.24649 -0.12088,-0.02442 0,0 z m 20.430814,2.894831 c 0.06763,0.106616 -0.07225,-0.05423 0,0 z M 11.70663,32.672698 c -0.01441,0.780741 0.06956,1.594428 -0.152269,2.348708 -0.132641,0.01517 -0.270709,0.04949 -0.367413,0.148212 -0.0246,-1.179816 -0.05126,-2.359602 -0.08714,-3.539137 0.200617,-0.07951 0.403204,-0.155672 0.595703,-0.253832 0.0037,0.432017 0.0074,0.864033 0.01112,1.296049 z m 29.553111,-0.196589 c 0.09761,0.141411 -0.29135,-0.0094 -0.01159,-0.0026 z m 0.03883,0.165414 c 0.14035,0.116806 -0.245107,0.104031 -0.08714,-0.0024 0.02695,-0.01356 0.0609,-0.01259 0.08714,0.0024 z m -5.42916,0.604267 c 0.100148,0.113826 -0.100921,0.123647 0,0 z m 5.996018,0.936674 c 0.129958,0.01041 0.353092,-0.04974 0.283596,0.156469 0.01557,0.116073 -0.104073,-0.0752 -0.167308,-0.06392 -0.05835,-0.03726 -0.350773,-0.114718 -0.116288,-0.09255 z M 31.860626,34.76149 c -0.113527,-0.0162 0.154757,-0.09636 0,0 z m -11.638972,2.35945 c -0.08183,0.05052 -0.151808,-0.04898 0,0 z m -0.03884,0.278246 c 0.09761,0.141411 -0.291351,-0.0094 -0.01159,-0.0026 z"
     id="path96"
     inkscape:connector-curvature="0" />
  <path
     style="fill:#ff7f2a;stroke-width:0.03846154"
     d="m 41.764923,34.121015 c -0.09823,0.192003 0.204628,0.251596 0.337365,0.31836 0.243156,0.03039 0.162852,-0.34941 -0.04342,-0.325872 -0.09753,-0.005 -0.202958,-0.04122 -0.293945,0.0075 z"
     id="path98"
     inkscape:connector-curvature="0" />
  <path
     style="fill:#ff7f2a;stroke-width:0.03846154"
     d="m 29.26605,3.2556307 c -0.475222,0.016465 -0.959269,-0.023992 -1.429537,0.042743 -0.156778,0.133088 0.07842,0.236592 0.200987,0.2298326 0.991255,0.1676213 1.96969,0.4527555 2.839502,0.9706632 0.204225,0.167715 0.454105,0.2778074 0.630563,0.4845133 0.489918,0.40497 0.681993,1.0587039 0.673674,1.6658022 0.01655,0.5160295 -0.488499,0.7982886 -0.902644,0.9695013 -0.654535,0.2918096 -1.482086,0.4900354 -1.826923,1.1887769 -0.319725,0.6557081 -0.23731,1.5111118 0.302419,2.0279518 0.2872,0.302178 0.688444,0.481383 1.077914,0.597234 3.538063,0.01129 7.076406,0.04575 10.614298,0.04187 0.294505,1.69e-4 0.60114,-0.03955 0.889684,0.006 0.06069,1.187421 0.01601,2.379481 0.02626,3.568656 0.0035,0.803173 -0.01946,1.608769 -0.03039,2.410085 0.08472,0.402789 -0.01791,0.836524 0.06656,1.234374 0.305562,0.05205 0.641184,0.03036 0.950138,0.01205 0.141967,-0.16082 0.0278,-0.451141 0.06453,-0.661691 -0.01195,-2.227287 0.02354,-4.455384 -0.02443,-6.682166 -0.0024,-0.453421 -0.39208,-0.867699 -0.82512,-0.937304 -3.838742,-0.01271 -7.677484,-0.02542 -11.516226,-0.03813 C 30.767986,10.23619 30.294468,10.122588 30.324427,9.7155693 30.336417,9.4657101 30.369477,9.1374535 30.660515,9.0419666 31.424758,8.658472 32.367356,8.484167 32.882645,7.7353258 33.403021,7.0316921 33.29223,6.0763483 32.976505,5.312809 32.686683,4.4335435 31.889324,3.8618467 31.123708,3.416065 30.914909,3.275559 30.68147,3.2169983 30.430575,3.2525971 c -0.388171,10e-4 -0.776343,0.00201 -1.164514,0.00301 z"
     id="path100"
     inkscape:connector-curvature="0" />
  <path
     style="fill:#ff7f2a;stroke-width:0.03846154"
     d="m 26.529496,2.3347322 c -1.58768,0.00178 -3.223633,0.3258266 -4.576498,1.1891075 -0.623152,0.4329534 -1.272767,0.9504839 -1.499373,1.7081281 -0.246036,0.6607193 -0.408452,1.4346131 -0.09097,2.1005108 0.168561,0.1367008 0.432175,0.017681 0.638662,0.048908 0.175203,-0.049046 0.48784,0.093166 0.564463,-0.1188446 -0.219558,-0.2381761 -0.361822,-0.5586335 -0.335336,-0.8915265 0.07645,-0.5510216 0.262159,-1.1253385 0.700796,-1.4969951 1.086325,-0.9265732 2.517914,-1.3450519 3.917932,-1.4637888 0.63019,-0.069173 1.261283,0.02 1.890962,0.018551 0.452452,-0.1287904 0.938009,-0.059677 1.406209,-0.091979 0.45764,-0.017385 0.924557,0.00729 1.376556,-0.035464 C 30.721649,3.1041712 30.280414,3.0607422 30.153188,3.0004031 29.571254,2.7969639 28.965396,2.6595622 28.360476,2.5607689 27.829084,2.3292987 27.226014,2.3624576 26.658182,2.3350106 c -0.04289,-7.528e-4 -0.08579,-2.608e-4 -0.128686,-2.784e-4 z"
     id="path102"
     inkscape:connector-curvature="0" />
  <path
     style="fill:#ff7f2a;stroke-width:0.03846154"
     d="m 28.526041,10.983545 c -0.07055,0.121782 -0.25736,0.314483 -0.150897,0.459192 0.137896,0.05343 0.323424,0.169012 0.465801,0.08363 0.119866,-0.188634 -0.178183,-0.304132 -0.179087,-0.491061 -0.04234,-0.05643 -0.06668,-0.06506 -0.135817,-0.05176 z"
     id="path104"
     inkscape:connector-curvature="0" />
  <path
     style="fill:#ff7f2a;stroke-width:0.03846154"
     d="m 26.962714,12.291163 c -0.170607,3.14e-4 -0.292935,0.321407 -0.05957,0.312199 0.15312,-0.01649 0.296533,-0.302955 0.05957,-0.312199 z"
     id="path106"
     inkscape:connector-curvature="0" />
  <path
     style="fill:#ff7f2a;stroke-width:0.01457216"
     d="m 20.844547,4.3545746 c -0.370378,0.4037067 -0.530119,0.9454929 -0.664798,1.464104 -0.116315,0.4955931 -0.133069,1.040702 0.08331,1.5119473 0.02863,0.048665 0.06968,0.078568 0.0652,0.140314 0.08133,0.2227438 0.268809,0.3848924 0.428064,0.5529035 0.47257,0.4417445 1.11587,0.6092135 1.685412,0.8794093 0.202561,0.1009623 0.465124,0.1871333 0.535385,0.4287973 0.05034,0.227875 0.02128,0.5153573 -0.194846,0.6499697 -0.258268,0.1866613 -0.57893,0.2546803 -0.882128,0.3287843 -2.917469,3.3e-5 -5.834937,8.1e-5 -8.752406,1.42e-4 -0.137513,0.01685 -0.09405,0.178714 -0.100013,0.274879 0,2.151823 0,4.303646 0,6.455469 0.01685,0.137513 0.178714,0.09405 0.274879,0.100013 6.348606,0 12.697212,0 19.045818,0 0.137513,-0.01685 0.09405,-0.178714 0.100013,-0.274879 0,-2.15668 0,-4.313361 0,-6.470041 -0.01685,-0.137513 -0.178713,-0.09405 -0.274879,-0.100013 -0.371553,0 -0.743105,0 -1.114657,0 -0.205983,-0.112786 -0.453353,-0.182062 -0.608331,-0.3684022 -0.09578,-0.1661193 -0.04035,-0.3717659 8.26e-4,-0.5472815 0.02859,-0.12651 0.124567,-0.2204102 0.245082,-0.2617086 0.566468,-0.2730652 1.189967,-0.4494676 1.714242,-0.8069285 0.07418,-0.081253 0.02214,-0.2068179 0.03772,-0.3070094 0,-1.1895572 0,-2.3791143 0,-3.5686715 -0.01685,-0.1375132 -0.178713,-0.094048 -0.274879,-0.1000129 -3.763821,0 -7.527642,0 -11.291463,0 -0.01918,0.00607 -0.03837,0.012143 -0.05755,0.018215 z m 6.479262,0.063212 c 0.06592,0.033748 0.04282,0.1928825 -0.036,0.1670675 -0.05695,-0.03343 -0.04863,-0.1912093 0.036,-0.1670675 z m -4.89175,1.926087 c 0.02287,0.035805 -0.0072,0.023088 0,0 z m 6.461645,5.0918904 c 0.118995,0.03836 0.0095,0.229173 -0.08655,0.151499 -0.0654,-0.05948 0.0029,-0.174624 0.08655,-0.151499 z m -11.989333,4.979752 c 0.0924,0.01987 0.08624,0.186972 -0.01025,0.186308 -0.03646,-0.04359 -0.07099,0.05485 -0.112683,-1.82e-4 -0.02668,-0.02801 -0.06892,0.07039 -0.113755,0.0178 -0.07852,0.09214 -0.197151,-0.0675 -0.109804,-0.135647 0.04733,-0.05317 0.09477,0.01332 0.136814,-0.038 0.06477,0.05913 0.09221,-0.04485 0.157874,0.0043 0.01087,-0.01805 0.03129,-0.03172 0.0518,-0.03461 z m -0.04577,0.03902 c 0.0013,0.0012 -5.79e-4,-8.91e-4 0,0 z m -0.01981,0.01298 c 4.46e-4,-7.4e-5 3.16e-4,-0.0015 0,0 z m -0.08743,0.01457 c 4.47e-4,-7.4e-5 3.16e-4,-0.0015 0,0 z m -0.114443,0.01181 c 4e-4,-8.8e-5 4.35e-4,-0.0015 0,0 z m 0.132601,-3.12e-4 c 7.25e-4,0.0011 -3.39e-4,-0.001 0,0 z m -0.09429,0.007 c 8.12e-4,9.88e-4 -6.13e-4,-0.0011 0,0 z m 0.211923,0.01417 c 3.13e-4,9.65e-4 8e-5,-0.0011 0,0 z m -0.05456,0.02038 c 2.53e-4,-3.77e-4 -6.87e-4,-0.0013 0,0 z m -0.141651,0.0073 c 2.69e-4,0.0012 -1.4e-5,-0.0011 0,0 z m -0.06503,0.0016 c 3.42e-4,-2.86e-4 -4.02e-4,-0.0014 0,0 z m 0.154801,-3.41e-4 c 1.16e-4,0.0012 2.31e-4,-0.0011 0,0 z m -0.03555,0.006 c 2.53e-4,-3.77e-4 -6.87e-4,-0.0013 0,0 z m 0.110316,0.0271 c -8.2e-5,-5.17e-4 -0.0016,-0.0013 0,0 z m 0.01668,9.97e-4 c -3.76e-4,0.0011 9.45e-4,-0.0013 0,0 z m -0.188015,0.01543 c -2.38e-4,0.0011 6.87e-4,-0.0014 0,0 z m -0.04155,0.0013 c 3.2e-5,-5.02e-4 -0.0012,-0.0013 0,0 z m -1.198361,0.01158 c 0.107202,0.02039 0.07167,0.218922 -0.03412,0.180188 -0.0795,-0.03818 -0.05827,-0.181693 0.03412,-0.180188 z m 1.218625,0.01036 c -2.8e-4,-5.22e-4 -0.002,-0.0013 0,0 z m 0.006,0.0019 c -9.16e-4,0.0013 0.0012,-0.0013 0,0 z m -2.562025,0.09833 c 0.06592,0.03375 0.04282,0.192883 -0.036,0.167068 -0.05694,-0.03343 -0.04863,-0.19121 0.036,-0.167068 z"
     id="path108"
     inkscape:connector-curvature="0" />
  <path
     style="fill:#ff7f2a;stroke-width:0.01457216"
     d="m 27.388388,4.0487299 c -0.143077,0.00749 -0.155061,0.2362773 -0.01545,0.263779 0.118704,0.039872 0.201331,-0.11375 0.127564,-0.203498 -0.02247,-0.038858 -0.0669,-0.064194 -0.112109,-0.060281 z"
     id="path110"
     inkscape:connector-curvature="0" />
  <path
     style="fill:#ff7f2a;stroke-width:0.01457216"
     d="m 11.671487,31.298334 c -0.207165,0.06885 -0.40121,0.171814 -0.606168,0.243259 -0.11285,0.06785 -0.03866,0.214861 -0.05251,0.320849 0.02815,1.092686 0.06086,2.189052 0.07393,3.28061 -0.0046,0.110706 0.136392,0.138924 0.202326,0.06441 0.08701,-0.06678 0.199825,-0.06993 0.297321,-0.105222 0.109488,-0.09723 0.09977,-0.263871 0.137619,-0.395186 0.102682,-0.515439 0.06387,-1.04459 0.07415,-1.566648 -0.0024,-0.58602 0.0018,-1.172308 -0.0099,-1.758138 -0.0153,-0.05334 -0.05854,-0.09303 -0.116777,-0.08393 z"
     id="path112"
     inkscape:connector-curvature="0" />
  <path
     style="fill:#ff7f2a;stroke-width:0.01457216"
     d="m 12.051502,16.733599 c -0.09503,0.07469 -0.04834,0.280235 0.09076,0.258058 0.167225,-0.02678 0.342049,-0.0189 0.505444,-0.06075 0.109817,-0.05108 0.03724,-0.216759 -0.07377,-0.191898 -0.169217,0.0029 -0.338969,-0.03044 -0.50633,-0.0096 l -0.0141,0.0037 z"
     id="path114"
     inkscape:connector-curvature="0" />
  <path
     style="fill:#ff7f2a;stroke-width:0.01457216"
     d="m 12.841472,16.722727 c -0.08894,-0.0051 -0.238335,-2.85e-4 -0.23176,0.124006 0.02415,0.128083 0.180598,0.0941 0.274971,0.09418 0.08281,0.0029 0.200764,-0.02052 0.192249,-0.128103 -0.02425,-0.112548 -0.151526,-0.08528 -0.23546,-0.09008 z"
     id="path116"
     inkscape:connector-curvature="0" />
  <path
     style="fill:#000000;stroke-width:0.20298468"
     d="m 26.174946,2.3292724 c -2.444468,0.046832 -5.435254,1.1437307 -6.114121,3.7437194 -0.302895,1.6384485 1.403533,2.4435926 2.573782,3.0400127 0.811257,0.4833951 -0.183856,1.1618975 -0.771897,1.1168125 -3.772404,0.348986 -7.599125,-0.116431 -11.35168,0.34769 -0.7858055,0.492482 -0.346012,1.737498 -0.5407642,2.500439 -0.1562367,3.341733 0.043113,6.736756 -0.3611701,10.046155 C 9.1423451,23.849223 8.4880339,22.783142 8.347974,22.335554 7.9731243,21.056522 6.6375175,20.140427 5.3182691,20.62961 c -2.4337678,0.693864 -3.302663,3.470661 -3.3242706,5.748987 -0.2261018,2.552372 0.1258965,5.807775 2.7303819,7.052924 1.1304544,0.565988 2.7437019,0.336139 3.2334825,-0.972504 0.3241001,-0.479027 0.7796532,-1.985021 1.5350716,-1.261913 0.6323085,2.269838 0.235556,4.713087 0.3688076,7.050143 0.1154166,1.745553 -0.1696989,3.606825 0.3011999,5.289899 1.18594,0.59141 2.673493,0.16879 3.957794,0.32357 3.111753,-0.117376 6.287956,0.274535 9.36149,-0.314452 2.107361,-0.651877 2.50651,-3.952106 0.601819,-5.061535 -0.38112,-0.430904 -1.534261,-0.463123 -1.467674,-1.130687 1.049394,-1.362959 3.062947,-1.447027 4.646843,-1.366183 1.277321,0.202673 2.978611,0.318642 3.707641,1.524369 -0.886331,0.830609 -2.500504,1.166266 -2.723247,2.601928 -0.452625,1.632235 0.659554,3.55848 2.448503,3.596239 3.98479,0.254917 7.998542,0.19759 11.986802,0.05868 1.164557,-0.0953 0.706551,-1.654098 0.853954,-2.411971 -0.01528,-3.678008 0.09183,-7.401122 -0.453932,-11.042899 -0.654703,-2.092737 -3.809887,-2.493178 -4.966782,-0.631156 -0.433622,0.455114 -0.58165,1.366647 -1.175884,1.574718 -2.04284,-2.060784 -1.750725,-5.506591 -0.402797,-7.868035 0.202441,-0.411249 0.895465,-0.799752 1.004218,-0.09555 0.449331,1.577386 2.118582,2.735076 3.749271,2.188428 1.966926,-0.488346 2.386851,-2.822439 2.206826,-4.553674 -0.127111,-3.419925 0.0449,-6.892759 -0.440621,-10.278083 -2.698531,-0.4259 -5.53249,-0.216395 -8.279953,-0.3354 -1.403539,-0.155737 -3.002054,0.19711 -4.282104,-0.4531494 C 30.399822,8.8145909 31.976583,8.9153861 32.461128,8.2003665 34.016309,6.7365128 32.91937,4.2001344 31.177408,3.437759 29.975083,3.0381264 28.795647,2.4690678 27.475316,2.3875512 27.04372,2.3397883 26.609102,2.3197778 26.174946,2.3292724 Z"
     id="path73"
     inkscape:connector-curvature="0" />
</svg>
