<?xml version="1.0" encoding="UTF-8" standalone="no"?>
<svg
   xmlns:dc="http://purl.org/dc/elements/1.1/"
   xmlns:cc="http://creativecommons.org/ns#"
   xmlns:rdf="http://www.w3.org/1999/02/22-rdf-syntax-ns#"
   xmlns:svg="http://www.w3.org/2000/svg"
   xmlns="http://www.w3.org/2000/svg"
   xmlns:sodipodi="http://sodipodi.sourceforge.net/DTD/sodipodi-0.dtd"
   xmlns:inkscape="http://www.inkscape.org/namespaces/inkscape"
   width="32"
   height="32"
   viewBox="0 0 32 32"
   fill="none"
   version="1.1"
   id="svg4"
   sodipodi:docname="Search.svg"
   inkscape:version="0.92.5 (2060ec1f9f, 2020-04-08)">
  <metadata
     id="metadata10">
    <rdf:RDF>
      <cc:Work
         rdf:about="">
        <dc:format>image/svg+xml</dc:format>
        <dc:type
           rdf:resource="http://purl.org/dc/dcmitype/StillImage" />
      </cc:Work>
    </rdf:RDF>
  </metadata>
  <defs
     id="defs8" />
  <sodipodi:namedview
     pagecolor="#ffffff"
     bordercolor="#666666"
     borderopacity="1"
     objecttolerance="10"
     gridtolerance="10"
     guidetolerance="10"
     inkscape:pageopacity="0"
     inkscape:pageshadow="2"
     inkscape:window-width="1366"
     inkscape:window-height="720"
     id="namedview6"
     showgrid="false"
     inkscape:zoom="7.375"
     inkscape:cx="-8.4745763"
     inkscape:cy="16"
     inkscape:window-x="0"
     inkscape:window-y="22"
     inkscape:window-maximized="1"
     inkscape:current-layer="svg4" />
  <path
     d="M21.6061 19.3939L21.581 19.3689L21.5474 19.3577L20.081 18.8689L20.0194 18.8073C21.5141 17.0059 22.2712 14.703 22.1345 12.3629C21.9951 9.97651 20.937 7.7368 19.1823 6.11351C17.4275 4.49022 15.1123 3.60946 12.7223 3.65595C10.3323 3.70244 8.05318 4.67257 6.36288 6.36288C4.67257 8.05318 3.70244 10.3323 3.65595 12.7223C3.60946 15.1123 4.49022 17.4275 6.11351 19.1823C7.7368 20.937 9.97651 21.9951 12.3629 22.1345C14.703 22.2712 17.0059 21.5141 18.8073 20.0194L18.8689 20.081L19.3577 21.5474L19.3689 21.581L19.3939 21.6061L25.8939 28.1061L26 28.2121L26.1061 28.1061L28.1061 26.1061L28.2121 26L28.1061 25.8939L21.6061 19.3939ZM9.47213 7.72017C10.5164 7.02242 11.7441 6.65 13 6.65C14.6841 6.65 16.2993 7.31901 17.4901 8.50987C18.681 9.70073 19.35 11.3159 19.35 13C19.35 14.2559 18.9776 15.4836 18.2798 16.5279C17.5821 17.5721 16.5903 18.386 15.43 18.8666C14.2697 19.3472 12.993 19.473 11.7612 19.228C10.5294 18.983 9.39793 18.3782 8.50987 17.4901C7.62181 16.6021 7.01703 15.4706 6.77201 14.2388C6.527 13.007 6.65275 11.7303 7.13336 10.57C7.61398 9.40965 8.42788 8.41791 9.47213 7.72017Z"
     fill="#EEEEEE"
     stroke="#EEEEEE"
     stroke-width="0.3"
     id="path2" />
  <path
     style="fill:#ffcc00;stroke-width:0.13559322"
     d="m 22.551816,24.942373 c -2.871242,-2.880867 -3.438849,-3.515102 -3.579788,-4 -0.09212,-0.316949 -0.204691,-0.576271 -0.25015,-0.576271 -0.04546,0 -0.317574,0.159631 -0.604698,0.354737 -0.785306,0.533629 -2.067659,1.077017 -3.170047,1.343284 -0.767938,0.185485 -1.320865,0.22145 -2.508475,0.163161 C 10.022939,22.108719 8.2581935,21.374148 6.5388846,19.771516 3.4282953,16.872021 2.6475566,12.424336 4.5725009,8.5694915 5.3375642,7.0373954 7.1370206,5.2642932 8.6779661,4.5241539 10.156806,3.8138448 11.273309,3.5570439 12.893564,3.5545466 c 3.676269,-0.00567 6.815206,1.9434664 8.40375,5.2183348 0.73165,1.5083346 0.947783,2.4525676 0.946628,4.1355936 -0.0014,2.004338 -0.531623,3.751135 -1.625819,5.355932 -0.152543,0.223729 -0.277756,0.444613 -0.278246,0.490853 -5.43e-4,0.04624 0.288937,0.16192 0.643174,0.257065 0.579687,0.155699 0.979527,0.506113 4,3.505543 1.845763,1.832904 3.355932,3.396537 3.355932,3.474742 0,0.137368 -2.175284,2.373492 -2.308914,2.373492 -0.03628,0 -1.601493,-1.540678 -3.478253,-3.423729 z M 15.659271,18.549669 C 19.561859,16.620906 20.371669,11.441031 17.225936,8.5286374 13.49507,5.0745132 7.6196716,7.1539075 6.8896648,12.186804 c -0.1303546,0.898705 -0.1185994,1.218547 0.076988,2.09475 0.3669456,1.643864 1.2491665,2.949056 2.5993596,3.845596 1.1980266,0.795498 2.0966556,1.033837 3.6846006,0.977245 1.276969,-0.04551 1.466779,-0.08922 2.408658,-0.554726 z"
     id="path12"
     inkscape:connector-curvature="0" />
  <path
     style="fill:#000000;stroke-width:0.13559322"
     d="M 12.63411,3.5575742 C 8.9827245,3.4884425 5.6108286,6.008702 4.2003178,9.2977755 2.7367241,12.951157 3.6832349,17.522274 6.7919085,20.038877 c 2.507796,2.31676 6.3218585,2.705241 9.4732925,1.663029 0.870571,-0.262981 1.615935,-0.856823 2.416049,-1.21769 1.089863,2.004589 2.944171,3.449806 4.466103,5.114253 0.937598,0.910632 1.825428,1.885128 2.825475,2.724995 0.792283,-0.40794 1.378293,-1.224751 2.018803,-1.855932 0.471231,-0.353166 0.194063,-0.869818 -0.194058,-1.139588 -2.097606,-2.089911 -4.091748,-4.315612 -6.410815,-6.162848 -0.253702,-0.255221 -1.164594,-0.251389 -0.790518,-0.733581 1.000975,-1.48258 1.614435,-3.231138 1.599658,-5.036811 0.182615,-1.818775 -0.218103,-3.6609365 -1.20612,-5.2049794 -1.412147,-2.6230271 -4.178335,-4.4348439 -7.163666,-4.5927463 -0.3963,-0.033876 -0.794362,-0.04485 -1.192002,-0.039404 z m 0.214513,3.3469279 c 2.838521,-0.09079 5.714399,2.0945649 6.110905,4.9625919 0.04306,1.417683 0.183763,2.96069 -0.713129,4.173796 -1.073458,1.663383 -2.916855,3.123425 -5.001325,2.96213 C 11.444999,19.229573 9.6630426,18.419984 8.4828919,17.069492 5.8710226,14.433772 6.6707449,9.5348053 9.8814618,7.7339513 10.749588,7.2113582 11.825863,6.9122488 12.848623,6.9045021 Z"
     id="path8"
     inkscape:connector-curvature="0" />
</svg>
