<?xml version="1.0" encoding="UTF-8" standalone="no"?>
<svg
   xmlns:dc="http://purl.org/dc/elements/1.1/"
   xmlns:cc="http://creativecommons.org/ns#"
   xmlns:rdf="http://www.w3.org/1999/02/22-rdf-syntax-ns#"
   xmlns:svg="http://www.w3.org/2000/svg"
   xmlns="http://www.w3.org/2000/svg"
   xmlns:sodipodi="http://sodipodi.sourceforge.net/DTD/sodipodi-0.dtd"
   xmlns:inkscape="http://www.inkscape.org/namespaces/inkscape"
   width="32"
   height="29"
   viewBox="0 0 32 29"
   fill="none"
   version="1.1"
   id="svg11"
   sodipodi:docname="Warning.svg"
   inkscape:version="0.92.5 (2060ec1f9f, 2020-04-08)">
  <metadata
     id="metadata15">
    <rdf:RDF>
      <cc:Work
         rdf:about="">
        <dc:format>image/svg+xml</dc:format>
        <dc:type
           rdf:resource="http://purl.org/dc/dcmitype/StillImage" />
      </cc:Work>
    </rdf:RDF>
  </metadata>
  <sodipodi:namedview
     pagecolor="#ffffff"
     bordercolor="#666666"
     borderopacity="1"
     objecttolerance="10"
     gridtolerance="10"
     guidetolerance="10"
     inkscape:pageopacity="0"
     inkscape:pageshadow="2"
     inkscape:window-width="797"
     inkscape:window-height="480"
     id="namedview13"
     showgrid="false"
     inkscape:zoom="8.137931"
     inkscape:cx="-6.1800848"
     inkscape:cy="14.5"
     inkscape:window-x="0"
     inkscape:window-y="22"
     inkscape:window-maximized="0"
     inkscape:current-layer="svg11" />
  <g
     clip-path="url(#clip0)"
     id="g4">
    <path
       fill-rule="evenodd"
       clip-rule="evenodd"
       d="M16 0L32 28.16H0L16 0ZM14.08 10.24H17.92V17.92H14.08V10.24ZM14.08 20.48H17.92V24.32H14.08V20.48Z"
       fill="#9AA0A6"
       id="path2" />
  </g>
  <defs
     id="defs9">
    <clipPath
       id="clip0">
      <rect
         width="32"
         height="28.16"
         fill="white"
         id="rect6" />
    </clipPath>
  </defs>
  <path
     style="fill:#ff0000;stroke-width:0.12288135"
     d="M 0.14830508,28.079109 C 0.14830508,27.952588 15.928171,0.15765503 16,0.15765503 c 0.07183,0 15.851695,27.79493297 15.851695,27.92145397 0,0.04691 -7.133263,0.0853 -15.851695,0.0853 -8.7184322,0 -15.85169492,-0.03839 -15.85169492,-0.0853 z M 17.966102,22.388983 V 20.422881 H 16 14.033898 v 1.966102 1.966102 H 16 17.966102 Z m 0,-8.294491 V 10.223729 H 16 14.033898 v 3.870763 3.870762 H 16 17.966102 Z"
     id="path17"
     inkscape:connector-curvature="0" />
  <path
     style="fill:#000000;stroke-width:0.12288135"
     d="M 15.946431,0.18561811 C 10.734315,9.1450719 5.6667316,18.190427 0.58842187,27.226956 c -0.1707206,0.275147 -0.65606945,0.967097 0.0393604,0.84361 10.38189973,0.279089 20.76839273,0.0086 31.15234373,0.07104 0.12389,-0.511939 -0.605134,-1.156893 -0.78915,-1.712684 C 26.056469,17.67197 21.086106,8.9351338 16.107473,0.2031383 L 16.031393,0.1532178 Z M 15.987712,10.32381 c 0.581888,0.18348 1.935908,-0.4051719 1.927461,0.368644 0,2.390906 0,4.781813 0,7.17272 -1.284974,0 -2.569949,0 -3.854923,0 0,-2.513788 0,-5.027577 0,-7.541364 0.642488,0 1.284974,0 1.927462,0 z m 0,10.199152 c 0.581888,0.18348 1.935908,-0.405172 1.927461,0.368644 0,1.121133 0,2.242265 0,3.363398 -1.284974,0 -2.569949,0 -3.854923,0 0,-1.244014 0,-2.488028 0,-3.732042 0.642488,0 1.284974,0 1.927462,0 z"
     id="path11"
     inkscape:connector-curvature="0" />
</svg>
